/* XPM */
static char * closeO_xpm[] = {
"17 34 106 2",
"  	c None",
". 	c #5C9EE1",
"+ 	c #418EDC",
"@ 	c #438FDC",
"# 	c #507FBC",
"$ 	c #666C90",
"% 	c #8187AB",
"& 	c #4590DC",
"* 	c #676D90",
"= 	c #8288AB",
"- 	c #4791DD",
"; 	c #696E90",
"> 	c #8489AB",
", 	c #4992DD",
"' 	c #6B6F91",
") 	c #868AAC",
"! 	c #464E65",
"~ 	c #646B86",
"{ 	c #4B93DD",
"] 	c #6D7091",
"^ 	c #888BAC",
"/ 	c #656C86",
"( 	c #1A2533",
"_ 	c #666B86",
": 	c #4D95DE",
"< 	c #6F7191",
"[ 	c #8A8CAC",
"} 	c #676D86",
"| 	c #4C536A",
"1 	c #4F96DE",
"2 	c #717292",
"3 	c #8C8DAD",
"4 	c #4D5369",
"5 	c #131F2C",
"6 	c #5197DF",
"7 	c #737392",
"8 	c #8E8EAD",
"9 	c #6A6E87",
"0 	c #4E546A",
"a 	c #5398DF",
"b 	c #757492",
"c 	c #908FAD",
"d 	c #6B6E86",
"e 	c #6C6E87",
"f 	c #5599DF",
"g 	c #777593",
"h 	c #9290AE",
"i 	c #4B5065",
"j 	c #6C6F87",
"k 	c #579BE0",
"l 	c #797693",
"m 	c #9491AE",
"n 	c #599CE0",
"o 	c #7B7793",
"p 	c #9692AE",
"q 	c #5B9DE0",
"r 	c #6C8FC0",
"s 	c #7C7894",
"t 	c #9793AF",
"u 	c #5D9EE1",
"v 	c #5F9FE1",
"w 	c #5B9CE0",
"x 	c #4675AF",
"y 	c #505470",
"z 	c #656986",
"A 	c #515470",
"B 	c #666986",
"C 	c #535570",
"D 	c #686A86",
"E 	c #545671",
"F 	c #696B86",
"G 	c #565771",
"H 	c #6B6C87",
"I 	c #ADB3C7",
"J 	c #8E92A9",
"K 	c #575871",
"L 	c #6C6D87",
"M 	c #8F93A9",
"N 	c #D9E4F2",
"O 	c #8E92A8",
"P 	c #595972",
"Q 	c #6E6E87",
"R 	c #9093A8",
"S 	c #AAB0C3",
"T 	c #5A5A72",
"U 	c #6F6F87",
"V 	c #ABB1C3",
"W 	c #E0ECF9",
"X 	c #5C5B72",
"Y 	c #717088",
"Z 	c #9294A9",
"` 	c #DAE5F2",
" .	c #ACB1C4",
"..	c #5D5C73",
"+.	c #727188",
"@.	c #9395A9",
"#.	c #9295A9",
"$.	c #5F5D73",
"%.	c #747288",
"&.	c #B1B6C8",
"*.	c #9496A9",
"=.	c #605D73",
"-.	c #757288",
";.	c #6084B3",
">.	c #615E74",
",.	c #767389",
". . . . . . . . . . . . . . . . . ",
"+ @ # $ $ $ $ $ $ $ $ $ $ $ # @ + ",
"@ # $ % % % % % % % % % % % $ # @ ",
"& * = = = = = = = = = = = = = * & ",
"- ; > > > > > > > > > > > > > ; - ",
", ' ) ) ) ! ~ ) ) ) ~ ! ) ) ) ' , ",
"{ ] ^ ^ ^ / ( _ ^ _ ( / ^ ^ ^ ] { ",
": < [ [ [ [ } ( | ( } [ [ [ [ < : ",
"1 2 3 3 3 3 3 4 5 4 3 3 3 3 3 2 1 ",
"6 7 8 8 8 8 9 ( 0 ( 9 8 8 8 8 7 6 ",
"a b c c c d ( e c e ( d c c c b a ",
"f g h h h i j h h h j i h h h g f ",
"k l m m m m m m m m m m m m m l k ",
"n o p p p p p p p p p p p p p o n ",
"q r s t t t t t t t t t t t s r q ",
"u v r s s s s s s s s s s s r v u ",
"v w w w w w w w w w w w w w w w v ",
". . . . . . . . . . . . . . . . . ",
"+ @ x y y y y y y y y y y y x @ + ",
"@ x y z z z z z z z z z z z y x @ ",
"& A B B B B B B B B B B B B B A & ",
"- C D D D D D D D D D D D D D C - ",
", E F F F F F F F F F F F F F E , ",
"{ G H H H I J H H H J I H H H G { ",
": K L L L M N O L O N M L L L K : ",
"1 P Q Q Q Q R N S N R Q Q Q Q P 1 ",
"6 T U U U U U V W V U U U U U T 6 ",
"a X Y Y Y Y Z `  .` Z Y Y Y Y X a ",
"f ..+.+.+.@.` #.+.#.` @.+.+.+...f ",
"k $.%.%.%.&.*.%.%.%.*.&.%.%.%.$.k ",
"n =.-.-.-.-.-.-.-.-.-.-.-.-.-.=.n ",
"q ;.>.,.,.,.,.,.,.,.,.,.,.,.>.;.q ",
"u v ;.>.>.>.>.>.>.>.>.>.>.>.;.v u ",
"v v v v v v v v v v v v v v v v v "};
