/* XPM */
static char * closeA_xpm[] = {
"17 34 106 2",
"  	c None",
". 	c #5C9EE1",
"+ 	c #418EDC",
"@ 	c #438FDC",
"# 	c #3D85CE",
"$ 	c #387ABD",
"% 	c #5B9DE0",
"& 	c #4590DC",
"* 	c #3A7BBD",
"= 	c #5D9EE0",
"- 	c #4791DD",
"; 	c #3D7CBD",
"> 	c #609FE0",
", 	c #4992DD",
"' 	c #3F7EBE",
") 	c #62A1E1",
"! 	c #36587C",
"~ 	c #4B7BAB",
"{ 	c #4B93DD",
"] 	c #427FBE",
"^ 	c #65A2E1",
"/ 	c #4D7CAB",
"( 	c #182736",
"_ 	c #4D7BAC",
": 	c #4D95DE",
"< 	c #4481BF",
"[ 	c #67A4E2",
"} 	c #4F7EAD",
"| 	c #3C5F83",
"1 	c #4F96DE",
"2 	c #4782BF",
"3 	c #6AA5E2",
"4 	c #3D5E82",
"5 	c #131F2C",
"6 	c #5197DF",
"7 	c #4984C0",
"8 	c #6CA7E3",
"9 	c #5280AD",
"0 	c #3E6084",
"a 	c #5398DF",
"b 	c #4C85C0",
"c 	c #6FA8E3",
"d 	c #5480AC",
"e 	c #192736",
"f 	c #5480AD",
"g 	c #5599DF",
"h 	c #4E87C1",
"i 	c #71AAE4",
"j 	c #3D5C7D",
"k 	c #5581AD",
"l 	c #579BE0",
"m 	c #5188C1",
"n 	c #74ABE4",
"o 	c #599CE0",
"p 	c #5389C1",
"q 	c #76ACE4",
"r 	c #5B96D3",
"s 	c #548AC2",
"t 	c #77ADE5",
"u 	c #5D9EE1",
"v 	c #5F9FE1",
"w 	c #5B9CE0",
"x 	c #4675AF",
"y 	c #505470",
"z 	c #656986",
"A 	c #515470",
"B 	c #666986",
"C 	c #535570",
"D 	c #686A86",
"E 	c #545671",
"F 	c #696B86",
"G 	c #565771",
"H 	c #6B6C87",
"I 	c #ADB3C7",
"J 	c #8E92A9",
"K 	c #575871",
"L 	c #6C6D87",
"M 	c #8F93A9",
"N 	c #D9E4F2",
"O 	c #8E92A8",
"P 	c #595972",
"Q 	c #6E6E87",
"R 	c #9093A8",
"S 	c #AAB0C3",
"T 	c #5A5A72",
"U 	c #6F6F87",
"V 	c #ABB1C3",
"W 	c #E0ECF9",
"X 	c #5C5B72",
"Y 	c #717088",
"Z 	c #9294A9",
"` 	c #DAE5F2",
" .	c #ACB1C4",
"..	c #5D5C73",
"+.	c #727188",
"@.	c #9395A9",
"#.	c #9295A9",
"$.	c #5F5D73",
"%.	c #747288",
"&.	c #B1B6C8",
"*.	c #9496A9",
"=.	c #605D73",
"-.	c #757288",
";.	c #6084B3",
">.	c #615E74",
",.	c #767389",
". . . . . . . . . . . . . . . . . ",
"+ @ # $ $ $ $ $ $ $ $ $ $ $ # @ + ",
"@ # $ % % % % % % % % % % % $ # @ ",
"& * = = = = = = = = = = = = = * & ",
"- ; > > > > > > > > > > > > > ; - ",
", ' ) ) ) ! ~ ) ) ) ~ ! ) ) ) ' , ",
"{ ] ^ ^ ^ / ( _ ^ _ ( / ^ ^ ^ ] { ",
": < [ [ [ [ } ( | ( } [ [ [ [ < : ",
"1 2 3 3 3 3 3 4 5 4 3 3 3 3 3 2 1 ",
"6 7 8 8 8 8 9 ( 0 ( 9 8 8 8 8 7 6 ",
"a b c c c d e f c f e d c c c b a ",
"g h i i i j k i i i k j i i i h g ",
"l m n n n n n n n n n n n n n m l ",
"o p q q q q q q q q q q q q q p o ",
"% r s t t t t t t t t t t t s r % ",
"u v r s s s s s s s s s s s r v u ",
"v w w w w w w w w w w w w w w w v ",
". . . . . . . . . . . . . . . . . ",
"+ @ x y y y y y y y y y y y x @ + ",
"@ x y z z z z z z z z z z z y x @ ",
"& A B B B B B B B B B B B B B A & ",
"- C D D D D D D D D D D D D D C - ",
", E F F F F F F F F F F F F F E , ",
"{ G H H H I J H H H J I H H H G { ",
": K L L L M N O L O N M L L L K : ",
"1 P Q Q Q Q R N S N R Q Q Q Q P 1 ",
"6 T U U U U U V W V U U U U U T 6 ",
"a X Y Y Y Y Z `  .` Z Y Y Y Y X a ",
"g ..+.+.+.@.` #.+.#.` @.+.+.+...g ",
"l $.%.%.%.&.*.%.%.%.*.&.%.%.%.$.l ",
"o =.-.-.-.-.-.-.-.-.-.-.-.-.-.=.o ",
"% ;.>.,.,.,.,.,.,.,.,.,.,.,.>.;.% ",
"u v ;.>.>.>.>.>.>.>.>.>.>.>.;.v u ",
"v v v v v v v v v v v v v v v v v "};
