/* XPM */
static char * closeI_xpm[] = {
"17 34 92 2",
"  	c None",
". 	c #A9B4C2",
"+ 	c #9DAABA",
"@ 	c #93A0AE",
"# 	c #8792A0",
"$ 	c #AAB5C3",
"% 	c #9EABBB",
"& 	c #9FACBB",
"* 	c #8893A1",
"= 	c #ABB6C4",
"- 	c #A0ACBC",
"; 	c #8994A2",
"> 	c #ACB7C5",
", 	c #5F646C",
"' 	c #838B96",
") 	c #A1ADBC",
"! 	c #8A95A2",
"~ 	c #ADB8C5",
"{ 	c #838C96",
"] 	c #292C30",
"^ 	c #848D96",
"/ 	c #A1AEBD",
"( 	c #8B96A3",
"_ 	c #AEB9C6",
": 	c #858E98",
"< 	c #656B72",
"[ 	c #A2AEBD",
"} 	c #8C97A4",
"| 	c #AFBAC7",
"1 	c #646A72",
"2 	c #212326",
"3 	c #A3AFBE",
"4 	c #8D98A5",
"5 	c #B0BBC8",
"6 	c #868F99",
"7 	c #666C73",
"8 	c #A4B0BF",
"9 	c #8E99A5",
"0 	c #B1BCC8",
"a 	c #868F98",
"b 	c #879098",
"c 	c #A5B0BF",
"d 	c #8F9AA6",
"e 	c #B2BDC9",
"f 	c #61676D",
"g 	c #879099",
"h 	c #A5B1C0",
"i 	c #909BA7",
"j 	c #B3BECA",
"k 	c #A6B2C0",
"l 	c #919BA7",
"m 	c #B4BECA",
"n 	c #A7B2C1",
"o 	c #A0AAB7",
"p 	c #929CA8",
"q 	c #B5BFCB",
"r 	c #A8B3C1",
"s 	c #908C94",
"t 	c #7F625F",
"u 	c #957874",
"v 	c #80635F",
"w 	c #967974",
"x 	c #806360",
"y 	c #967975",
"z 	c #816460",
"A 	c #977A75",
"B 	c #C7BDBB",
"C 	c #B19E9A",
"D 	c #826561",
"E 	c #977A76",
"F 	c #B19E9B",
"G 	c #E9E9EC",
"H 	c #B19D9A",
"I 	c #987B76",
"J 	c #C5B8B8",
"K 	c #836662",
"L 	c #987B77",
"M 	c #EEF0F3",
"N 	c #846762",
"O 	c #997C77",
"P 	c #B29F9B",
"Q 	c #C6B9B8",
"R 	c #846763",
"S 	c #997C78",
"T 	c #B29F9C",
"U 	c #856863",
"V 	c #9A7D78",
"W 	c #C9BEBD",
"X 	c #B3A09C",
"Y 	c #9B959B",
"Z 	c #866964",
"` 	c #9B7E79",
". . . . . . . . . . . . . . . . . ",
"+ + @ # # # # # # # # # # # @ + + ",
"+ @ # $ $ $ $ $ $ $ $ $ $ $ # @ + ",
"% # $ $ $ $ $ $ $ $ $ $ $ $ $ # % ",
"& * = = = = = = = = = = = = = * & ",
"- ; > > > , ' > > > ' , > > > ; - ",
") ! ~ ~ ~ { ] ^ ~ ^ ] { ~ ~ ~ ! ) ",
"/ ( _ _ _ _ : ] < ] : _ _ _ _ ( / ",
"[ } | | | | | 1 2 1 | | | | | } [ ",
"3 4 5 5 5 5 6 ] 7 ] 6 5 5 5 5 4 3 ",
"8 9 0 0 0 a ] b 0 b ] a 0 0 0 9 8 ",
"c d e e e f g e e e g f e e e d c ",
"h i j j j j j j j j j j j j j i h ",
"k l m m m m m m m m m m m m m l k ",
"n o p q q q q q q q q q q q p o n ",
"r . o p p p p p p p p p p p o . r ",
". . . . . . . . . . . . . . . . . ",
". . . . . . . . . . . . . . . . . ",
"+ + s t t t t t t t t t t t s + + ",
"+ s t u u u u u u u u u u u t s + ",
"% t u u u u u u u u u u u u u t % ",
"& v w w w w w w w w w w w w w v & ",
"- x y y y y y y y y y y y y y x - ",
") z A A A B C A A A C B A A A z ) ",
"/ D E E E F G H E H G F E E E D / ",
"[ D I I I I C G J G C I I I I D [ ",
"3 K L L L L L J M J L L L L L K 3 ",
"8 N O O O O P G Q G P O O O O N 8 ",
"c R S S S T G T S T G T S S S R c ",
"h U V V V W X V V V X W V V V U h ",
"k U V V V V V V V V V V V V V U k ",
"n Y Z ` ` ` ` ` ` ` ` ` ` ` Z Y n ",
"r . Y Z Z Z Z Z Z Z Z Z Z Z Y . r ",
". . . . . . . . . . . . . . . . . "};
