/* XPM */
static char * frameITR_xpm[] = {
"3 19 20 1",
" 	c None",
".	c #525961",
"+	c #929AA3",
"@	c #A9B4C2",
"#	c #737B85",
"$	c #9DAABA",
"%	c #8C95A1",
"&	c #9EABBB",
"*	c #9FACBB",
"=	c #A0ACBC",
"-	c #A1ADBC",
";	c #A1AEBD",
">	c #A2AEBD",
",	c #A3AFBE",
"'	c #A4B0BF",
")	c #A5B0BF",
"!	c #A5B1C0",
"~	c #A6B2C0",
"{	c #A7B2C1",
"]	c #A8B3C1",
".  ",
"+. ",
"@#.",
"$%.",
"$%.",
"&%.",
"*%.",
"=%.",
"-%.",
";%.",
">%.",
",%.",
"'%.",
")%.",
"!%.",
"~%.",
"{%.",
"]%.",
"@%."};
