/* XPM */
static char * frameITL_xpm[] = {
"3 20 20 1",
" 	c None",
".	c #525961",
"+	c #929AA3",
"@	c #8A929C",
"#	c #A9B4C2",
"$	c #B3BCC8",
"%	c #9DAABA",
"&	c #9EABBB",
"*	c #9FACBB",
"=	c #A0ACBC",
"-	c #A1ADBC",
";	c #A1AEBD",
">	c #A2AEBD",
",	c #A3AFBE",
"'	c #A4B0BF",
")	c #A5B0BF",
"!	c #A5B1C0",
"~	c #A6B2C0",
"{	c #A7B2C1",
"]	c #A8B3C1",
"  .",
" .+",
".@#",
".$%",
".$%",
".$&",
".$*",
".$=",
".$-",
".$;",
".$>",
".$,",
".$'",
".$)",
".$!",
".$~",
".${",
".$]",
".${",
".$]"};
