/* XPM */
static char * frameATR_xpm[] = {
"3 19 22 1",
" 	c None",
".	c #224A73",
"+	c #628CB8",
"@	c #5C9EE1",
"#	c #38699B",
"$	c #418EDC",
"%	c #4880B9",
"&	c #428EDC",
"*	c #448FDC",
"=	c #4690DC",
"-	c #4791DD",
";	c #4992DD",
">	c #4B93DD",
",	c #4D94DE",
"'	c #4E95DE",
")	c #5096DE",
"!	c #5297DF",
"~	c #5498DF",
"{	c #5599DF",
"]	c #579AE0",
"^	c #599BE0",
"/	c #5B9CE0",
".  ",
"+. ",
"@#.",
"$%.",
"&%.",
"*%.",
"=%.",
"-%.",
";%.",
">%.",
",%.",
"'%.",
")%.",
"!%.",
"~%.",
"{%.",
"]%.",
"^%.",
"/%."};
