/* XPM */
static char * informationI_xpm[] = {
"20 40 101 2",
"  	c None",
". 	c #CDC6CD",
"+ 	c #C5C6C5",
"@ 	c #C5C2C5",
"# 	c #DED6DE",
"$ 	c #EEEEF6",
"% 	c #FFF6FF",
"& 	c #F6F6FF",
"* 	c #E6E6EE",
"= 	c #D5D2DE",
"- 	c #DEE2EE",
"; 	c #FFFAFF",
"> 	c #F6F2F6",
", 	c #E6EAF6",
"' 	c #E6EAEE",
") 	c #DEDEEE",
"! 	c #C5BEC5",
"~ 	c #CDCAD5",
"{ 	c #FFFFFF",
"] 	c #F6F2FF",
"^ 	c #D5DEEE",
"/ 	c #CDCACD",
"( 	c #C5CADE",
"_ 	c #EEF2F6",
": 	c #000000",
"< 	c #DEE6EE",
"[ 	c #D5DEE6",
"} 	c #BDC6D5",
"| 	c #BDBABD",
"1 	c #B4BAC5",
"2 	c #BDC6DE",
"3 	c #E6E6F6",
"4 	c #B4B6C5",
"5 	c #9CAAC5",
"6 	c #CDD6E6",
"7 	c #F6FAFF",
"8 	c #C5CEDE",
"9 	c #9CA5BD",
"0 	c #BDB6BD",
"a 	c #7B99B4",
"b 	c #EEF2FF",
"c 	c #D5DAE6",
"d 	c #8395B4",
"e 	c #B4B2B4",
"f 	c #6285A4",
"g 	c #ACA5AC",
"h 	c #5A7DA4",
"i 	c #5A799C",
"j 	c #ACA1AC",
"k 	c #BDB2BD",
"l 	c #6A85A4",
"m 	c #ACBED5",
"n 	c #EEEAF6",
"o 	c #526D8B",
"p 	c #9C9D9C",
"q 	c #B4AEB4",
"r 	c #8B95AC",
"s 	c #6A89AC",
"t 	c #EEEEFF",
"u 	c #6A8DAC",
"v 	c #62697B",
"w 	c #A49DA4",
"x 	c #5A7194",
"y 	c #94AAC5",
"z 	c #E6EEF6",
"A 	c #315983",
"B 	c #7B797B",
"C 	c #A4A1A4",
"D 	c #ACAAAC",
"E 	c #9495A4",
"F 	c #315D8B",
"G 	c #395573",
"H 	c #838583",
"I 	c #B4AAB4",
"J 	c #83899C",
"K 	c #39597B",
"L 	c #52759C",
"M 	c #94A5C5",
"N 	c #BDCADE",
"O 	c #C5D2E6",
"P 	c #A4B2CD",
"Q 	c #5A7D9C",
"R 	c #29486A",
"S 	c #4A5062",
"T 	c #737173",
"U 	c #9C959C",
"V 	c #949194",
"W 	c #52657B",
"X 	c #104073",
"Y 	c #083C73",
"Z 	c #204062",
"` 	c #414C62",
" .	c #625D62",
"..	c #7B757B",
"+.	c #948D94",
"@.	c #8B818B",
"#.	c #6A696A",
"$.	c #6A656A",
"%.	c #949594",
"&.	c #9C919C",
"*.	c #8B898B",
". + . . . + . . . + . . . + . . . + . . ",
"@ . @ . @ . # $ % & % * # . @ . @ . @ . ",
". @ . @ = - $ ; > $ , , ' ) = @ . @ . @ ",
"! @ ! ~ ) , & { { ] $ , , - ^ / ! @ ! @ ",
"@ ! @ ( ) $ _ : : : : : < , [ } @ ! @ ! ",
"| ! 1 2 3 , : : : : : : : - , 2 4 ! | ! ",
"! | 5 6 < 3 : : 7 ; & : : - < 8 9 | ! | ",
"0 | a - 3 - b & ; & : : : ^ 3 c d e 0 | ",
"0 0 f * - ) , ] ] : : : , ) - < f g 0 0 ",
"e 0 h ) 3 [ , $ ] : : b $ ^ 3 6 i j e 0 ",
"k e l m - ^ ^ n $ b _ b , - < m o p k e ",
"q e r s 3 - ) < t : : _ $ * 3 u v w q e ",
"q q q x y * - - * : : ] z , 6 A B C q q ",
"D q D E F y 3 < , , & & $ y F G H g D q ",
"I D I D J K L M N 3 O P Q R S T U D I D ",
"g g g g j V W R X Y X Z `  ...+.C g g g ",
"g g g g g j U @...#.$.#...@.U j g g g g ",
"C g C g C g C w %.&.+.&.%.w C g C g C g ",
"j C j C j C j C j C j C j C j C j C j C ",
"+.*.+.*.+.*.+.*.+.*.+.*.+.*.+.*.+.*.+.*.",
". + . . . + . . . + . . . + . . . + . . ",
"@ . @ . @ . @ . @ . @ . @ . @ . @ . @ . ",
". @ . @ . @ . @ . @ . @ . @ . @ . @ . @ ",
"! @ ! @ ! @ ! @ ! @ ! @ ! @ ! @ ! @ ! @ ",
"@ ! @ ! @ ! @ ! @ ! @ ! @ ! @ ! @ ! @ ! ",
"| ! | ! | ! | ! | ! | ! | ! | ! | ! | ! ",
"! | ! | ! | ! | ! | ! | ! | ! | ! | ! | ",
"0 | 0 | 0 | 0 | 0 | 0 | 0 | 0 | 0 | 0 | ",
"0 0 0 0 0 0 0 0 0 0 0 0 0 0 0 0 0 0 0 0 ",
"e 0 e 0 e 0 e 0 e 0 e 0 e 0 e 0 e 0 e 0 ",
"k e k e k e k e k e k e k e k e k e k e ",
"q e q e q e q e q e q e q e q e q e q e ",
"q q q q q q q q q q q q q q q q q q q q ",
"D q D q D q D q D q D q D q D q D q D q ",
"I D I D I D I D I D I D I D I D I D I D ",
"g g g g g g g g g g g g g g g g g g g g ",
"g g g g g g g g g g g g g g g g g g g g ",
"C g C g C g C g C g C g C g C g C g C g ",
"j C j C j C j C j C j C j C j C j C j C ",
"+.*.+.*.+.*.+.*.+.*.+.*.+.*.+.*.+.*.+.*."};
