/* XPM */
static char * informationA_xpm[] = {
"20 40 134 2",
"  	c None",
". 	c #CDDEF6",
"+ 	c #C5DAF6",
"@ 	c #C5DAEE",
"# 	c #DEE6FF",
"$ 	c #EEF2FF",
"% 	c #FFF6FF",
"& 	c #F6F6FF",
"* 	c #E6EEFF",
"= 	c #DEE6F6",
"- 	c #D5E2F6",
"; 	c #EEEEF6",
"> 	c #FFFAFF",
", 	c #F6F2F6",
"' 	c #E6EAF6",
") 	c #E6EAEE",
"! 	c #BDD6EE",
"~ 	c #CDDAF6",
"{ 	c #DEDEEE",
"] 	c #FFFFFF",
"^ 	c #F6F2FF",
"/ 	c #DEE2EE",
"( 	c #D5DEEE",
"_ 	c #BDCEE6",
": 	c #EEF2F6",
"< 	c #000000",
"[ 	c #DEE6EE",
"} 	c #D5DEE6",
"| 	c #BDD6F6",
"1 	c #BDD2EE",
"2 	c #B4CAE6",
"3 	c #BDC6DE",
"4 	c #E6E6F6",
"5 	c #B4C6E6",
"6 	c #94AECD",
"7 	c #CDD6E6",
"8 	c #F6FAFF",
"9 	c #C5CEDE",
"0 	c #9CAECD",
"a 	c #B4D2EE",
"b 	c #BDD2F6",
"c 	c #7B99B4",
"d 	c #D5DAE6",
"e 	c #8399BD",
"f 	c #B4CAEE",
"g 	c #6285A4",
"h 	c #E6E6EE",
"i 	c #A4C2DE",
"j 	c #B4CEEE",
"k 	c #5A81AC",
"l 	c #5A7DA4",
"m 	c #A4BAD5",
"n 	c #B4D2F6",
"o 	c #B4CEF6",
"p 	c #6A8DB4",
"q 	c #ACBED5",
"r 	c #EEEAF6",
"s 	c #527194",
"t 	c #9CB6D5",
"u 	c #ACCAEE",
"v 	c #83AAD5",
"w 	c #6A89AC",
"x 	c #EEEEFF",
"y 	c #6A8DAC",
"z 	c #5A7594",
"A 	c #A4B6D5",
"B 	c #5A7DAC",
"C 	c #94AAC5",
"D 	c #E6EEF6",
"E 	c #29598B",
"F 	c #7B8DA4",
"G 	c #9CBADE",
"H 	c #8BAED5",
"I 	c #315D8B",
"J 	c #395D83",
"K 	c #839DBD",
"L 	c #A4C2E6",
"M 	c #83A1C5",
"N 	c #39618B",
"O 	c #52759C",
"P 	c #94A5C5",
"Q 	c #BDCADE",
"R 	c #C5D2E6",
"S 	c #A4B2CD",
"T 	c #5A7D9C",
"U 	c #294C73",
"V 	c #4A617B",
"W 	c #73859C",
"X 	c #9CB2D5",
"Y 	c #A4C6EE",
"Z 	c #ACC6EE",
"` 	c #A4C6E6",
" .	c #A4C2EE",
"..	c #94AED5",
"+.	c #527594",
"@.	c #29507B",
"#.	c #104473",
"$.	c #083C73",
"%.	c #104073",
"&.	c #20486A",
"*.	c #395973",
"=.	c #62718B",
"-.	c #7389A4",
";.	c #8BAACD",
">.	c #9CC2E6",
",.	c #9CB2DE",
"'.	c #7B8DAC",
").	c #6A7D9C",
"!.	c #6A7994",
"~.	c #9CBEE6",
"{.	c #94B2D5",
"].	c #94AACD",
"^.	c #8BAAC5",
"/.	c #8BA5C5",
"(.	c #D5E6FF",
"_.	c #E6EAFF",
":.	c #F6FFFF",
"<.	c #C5CEE6",
"[.	c #B4C6D5",
"}.	c #EEF6FF",
"|.	c #CDDAEE",
"1.	c #DEEAF6",
"2.	c #6285AC",
"3.	c #6A85AC",
"4.	c #B4C2DE",
"5.	c #94AEC5",
"6.	c #8BA5BD",
"7.	c #839DC5",
"8.	c #52799C",
"9.	c #BDCEDE",
"0.	c #CDD2E6",
"a.	c #52719C",
"b.	c #204C7B",
"c.	c #083873",
". + . + . + . + . + . + . + . + . + . + ",
"@ + + + @ + # $ % & % * = + + + @ + + + ",
"+ + + + - = ; > , ; ' ' ) = . + + + + + ",
"! + ! ~ { ' & ] ] ^ ; ' ' / ( ~ ! + ! + ",
"+ ! + _ { ; : < < < < < [ ' } _ + ! + | ",
"1 | 2 3 4 ' < < < < < < < / ' 3 5 | 1 | ",
"| 1 6 7 [ 4 < < 8 > & < < / [ 9 0 1 | 1 ",
"a b c / 4 / $ & > & < < < ( 4 d e f a b ",
"b a g h / { ' ^ ^ < < < ' { / [ g i b a ",
"j a k { 4 } ' ; ^ < < $ ; ( 4 7 l m j n ",
"o j p q / ( ( r ; $ : $ ' / [ q s t o j ",
"u j v w 4 / { [ x < < : ; h 4 y z A u j ",
"j u o B C h / / h < < ^ D ' 7 E F G o u ",
"u u u H I C 4 [ ' ' & & ; C I J K L u u ",
"u u u u M N O P Q 4 R S T U V W X u u u ",
"Y Z ` Y  ...+.@.#.$.%.&.*.=.-.;.>.Z ` Y ",
"Z Y Z Y Z  .,.K '.).!.).'.K ,. .Z Y Z Y ",
"L Y L Y L Y L ~.{.{.].{.{.~.L Y L Y L Y ",
" .L  .L  .L  .L  .L  .L  .L  .L  .L  .L ",
"^./.;./.^./.;./.^./.;./.^./.;./.^./.;./.",
". + . + . + . + . + . + . + . + . + . + ",
"@ + + + @ + + + @ + + + @ + + + @ + + + ",
"+ + + + + + + (.$ % & & * # + + + + + + ",
"! + ! + ! - ' : ] ] ] ] 8 $ _.. ! + ! + ",
"+ ! + | ~ ( D ] ] ] ] ] 8 :.x / ~ ! + | ",
"1 | 1 | <./ 8 ] < < < < < & :.' <.| 1 | ",
"| 1 | 2 [.D 8 < < < < < < < }.8 Q 5 | 1 ",
"a b a 6 d }.8 < < ] ] ] < < $ 8 |.0 a b ",
"b a b c / & $ ] ] ] ] < < < * & 1.c b a ",
"j a j 2.4 $ $ ] ] ] < < < ] $ }.& 3.j n ",
"o j o B ( $ * 8 ] ] < < ] ] * & ( l o j ",
"u j u p q D * $ ] ] ] ] ] :.}.& 4.+.u j ",
"j u o v w 4 ' * }.] < < ] ] }.$ w u o u ",
"u u u u B 5.' D }.8 < < ] ] & ( E u u u ",
"u u u u H I 6.h ' }.8 ] ] & C I u u u u ",
"Y Z ` Y Y 7.N 8.C 9.4 0.S l U Y Y Z ` Y ",
"Z Y Z Y Z  ...a.b.#.c.%.&.Y Z Y Z Y Z Y ",
"L Y L Y L Y L Y L Y L Y L Y L Y L Y L Y ",
" .L  .L  .L  .L  .L  .L  .L  .L  .L  .L ",
"^./.;./.^./.;./.^./.;./.^./.;./.^./.;./."};
