/* XPM */
static char * maximizeA_xpm[] = {
"17 34 92 2",
"  	c None",
". 	c #5C9EE1",
"+ 	c #418EDC",
"@ 	c #438FDC",
"# 	c #3D85CE",
"$ 	c #387ABD",
"% 	c #5B9DE0",
"& 	c #4590DC",
"* 	c #3A7BBD",
"= 	c #5D9EE0",
"- 	c #4791DD",
"; 	c #3D7CBD",
"> 	c #609FE0",
", 	c #4992DD",
"' 	c #3F7EBE",
") 	c #62A1E1",
"! 	c #36587C",
"~ 	c #253B53",
"{ 	c #4B93DD",
"] 	c #427FBE",
"^ 	c #65A2E1",
"/ 	c #2A435F",
"( 	c #3A5C81",
"_ 	c #4D95DE",
": 	c #4481BF",
"< 	c #67A4E2",
"[ 	c #304D6B",
"} 	c #4F96DE",
"| 	c #4782BF",
"1 	c #6AA5E2",
"2 	c #314D6B",
"3 	c #5197DF",
"4 	c #4984C0",
"5 	c #6CA7E3",
"6 	c #314E6B",
"7 	c #5398DF",
"8 	c #4C85C0",
"9 	c #6FA8E3",
"0 	c #324E6B",
"a 	c #5599DF",
"b 	c #4E87C1",
"c 	c #71AAE4",
"d 	c #3D5E80",
"e 	c #334F6C",
"f 	c #579BE0",
"g 	c #5188C1",
"h 	c #74ABE4",
"i 	c #599CE0",
"j 	c #5389C1",
"k 	c #76ACE4",
"l 	c #5B96D3",
"m 	c #548AC2",
"n 	c #77ADE5",
"o 	c #5D9EE1",
"p 	c #5F9FE1",
"q 	c #5B9CE0",
"r 	c #4684C2",
"s 	c #5078A0",
"t 	c #658DB5",
"u 	c #5178A0",
"v 	c #668DB5",
"w 	c #5379A0",
"x 	c #688EB5",
"y 	c #547AA0",
"z 	c #698FB5",
"A 	c #567BA1",
"B 	c #6B90B6",
"C 	c #ADC3DC",
"D 	c #C6D8EA",
"E 	c #577CA1",
"F 	c #6C91B6",
"G 	c #C0D2E7",
"H 	c #AAC1DA",
"I 	c #597CA1",
"J 	c #6E91B6",
"K 	c #B9CDE2",
"L 	c #5A7DA1",
"M 	c #6F92B6",
"N 	c #5C7EA2",
"O 	c #7193B7",
"P 	c #BACEE2",
"Q 	c #5D7FA2",
"R 	c #7294B7",
"S 	c #5F80A2",
"T 	c #7495B7",
"U 	c #AFC5DB",
"V 	c #BBCEE2",
"W 	c #6080A2",
"X 	c #7595B7",
"Y 	c #6093C7",
"Z 	c #6181A3",
"` 	c #7696B8",
". . . . . . . . . . . . . . . . . ",
"+ @ # $ $ $ $ $ $ $ $ $ $ $ # @ + ",
"@ # $ % % % % % % % % % % % $ # @ ",
"& * = = = = = = = = = = = = = * & ",
"- ; > > > > > > > > > > > > > ; - ",
", ' ) ) ) ! ~ ~ ~ ~ ~ ! ) ) ) ' , ",
"{ ] ^ ^ ^ / ( ( ( ( ( / ^ ^ ^ ] { ",
"_ : < < < [ < < < < < [ < < < : _ ",
"} | 1 1 1 2 1 1 1 1 1 2 1 1 1 | } ",
"3 4 5 5 5 6 5 5 5 5 5 6 5 5 5 4 3 ",
"7 8 9 9 9 0 9 9 9 9 9 0 9 9 9 8 7 ",
"a b c c c d e e e e e d c c c b a ",
"f g h h h h h h h h h h h h h g f ",
"i j k k k k k k k k k k k k k j i ",
"% l m n n n n n n n n n n n m l % ",
"o p l m m m m m m m m m m m l p o ",
"p q q q q q q q q q q q q q q q p ",
". . . . . . . . . . . . . . . . . ",
"+ @ r s s s s s s s s s s s r @ + ",
"@ r s t t t t t t t t t t t s r @ ",
"& u v v v v v v v v v v v v v u & ",
"- w x x x x x x x x x x x x x w - ",
", y z z z z z z z z z z z z z y , ",
"{ A B B B C D D D D D C B B B A { ",
"_ E F F F G H H H H H G F F F E _ ",
"} I J J J K J J J J J K J J J I } ",
"3 L M M M K M M M M M K M M M L 3 ",
"7 N O O O P O O O O O P O O O N 7 ",
"a Q R R R P R R R R R P R R R Q a ",
"f S T T T U V V V V V U T T T S f ",
"i W X X X X X X X X X X X X X W i ",
"% Y Z ` ` ` ` ` ` ` ` ` ` ` Z Y % ",
"o p Y Z Z Z Z Z Z Z Z Z Z Z Y p o ",
"p p p p p p p p p p p p p p p p p "};
