/* XPM */
static char * maximizeO_xpm[] = {
"17 34 92 2",
"  	c None",
". 	c #5C9EE1",
"+ 	c #418EDC",
"@ 	c #438FDC",
"# 	c #5092D5",
"$ 	c #6699CC",
"% 	c #81B4E7",
"& 	c #4590DC",
"* 	c #679ACC",
"= 	c #82B5E7",
"- 	c #4791DD",
"; 	c #699BCC",
"> 	c #84B6E7",
", 	c #4992DD",
"' 	c #6B9CCD",
") 	c #86B7E8",
"! 	c #46617F",
"~ 	c #2C4055",
"{ 	c #4B93DD",
"] 	c #6D9DCD",
"^ 	c #88B8E8",
"/ 	c #344961",
"( 	c #4A6784",
"_ 	c #4D95DE",
": 	c #6F9ECD",
"< 	c #8AB9E8",
"[ 	c #3C546D",
"} 	c #4F96DE",
"| 	c #719FCE",
"1 	c #8CBAE9",
"2 	c #5197DF",
"3 	c #73A0CE",
"4 	c #8EBBE9",
"5 	c #3D556D",
"6 	c #5398DF",
"7 	c #75A1CE",
"8 	c #90BCE9",
"9 	c #3E556D",
"0 	c #5599DF",
"a 	c #77A2CF",
"b 	c #92BDEA",
"c 	c #4C6782",
"d 	c #3E556E",
"e 	c #579BE0",
"f 	c #79A3CF",
"g 	c #94BEEA",
"h 	c #599CE0",
"i 	c #7BA4CF",
"j 	c #96BFEA",
"k 	c #5B9DE0",
"l 	c #6CA1D9",
"m 	c #7CA5D0",
"n 	c #97C0EB",
"o 	c #5D9EE1",
"p 	c #5F9FE1",
"q 	c #5B9CE0",
"r 	c #4684C2",
"s 	c #5078A0",
"t 	c #658DB5",
"u 	c #5178A0",
"v 	c #668DB5",
"w 	c #5379A0",
"x 	c #688EB5",
"y 	c #547AA0",
"z 	c #698FB5",
"A 	c #567BA1",
"B 	c #6B90B6",
"C 	c #ADC3DC",
"D 	c #C6D8EA",
"E 	c #577CA1",
"F 	c #6C91B6",
"G 	c #C0D2E7",
"H 	c #AAC1DA",
"I 	c #597CA1",
"J 	c #6E91B6",
"K 	c #B9CDE2",
"L 	c #5A7DA1",
"M 	c #6F92B6",
"N 	c #5C7EA2",
"O 	c #7193B7",
"P 	c #BACEE2",
"Q 	c #5D7FA2",
"R 	c #7294B7",
"S 	c #5F80A2",
"T 	c #7495B7",
"U 	c #AFC5DB",
"V 	c #BBCEE2",
"W 	c #6080A2",
"X 	c #7595B7",
"Y 	c #6093C7",
"Z 	c #6181A3",
"` 	c #7696B8",
". . . . . . . . . . . . . . . . . ",
"+ @ # $ $ $ $ $ $ $ $ $ $ $ # @ + ",
"@ # $ % % % % % % % % % % % $ # @ ",
"& * = = = = = = = = = = = = = * & ",
"- ; > > > > > > > > > > > > > ; - ",
", ' ) ) ) ! ~ ~ ~ ~ ~ ! ) ) ) ' , ",
"{ ] ^ ^ ^ / ( ( ( ( ( / ^ ^ ^ ] { ",
"_ : < < < [ < < < < < [ < < < : _ ",
"} | 1 1 1 [ 1 1 1 1 1 [ 1 1 1 | } ",
"2 3 4 4 4 5 4 4 4 4 4 5 4 4 4 3 2 ",
"6 7 8 8 8 9 8 8 8 8 8 9 8 8 8 7 6 ",
"0 a b b b c d d d d d c b b b a 0 ",
"e f g g g g g g g g g g g g g f e ",
"h i j j j j j j j j j j j j j i h ",
"k l m n n n n n n n n n n n m l k ",
"o p l m m m m m m m m m m m l p o ",
"p q q q q q q q q q q q q q q q p ",
". . . . . . . . . . . . . . . . . ",
"+ @ r s s s s s s s s s s s r @ + ",
"@ r s t t t t t t t t t t t s r @ ",
"& u v v v v v v v v v v v v v u & ",
"- w x x x x x x x x x x x x x w - ",
", y z z z z z z z z z z z z z y , ",
"{ A B B B C D D D D D C B B B A { ",
"_ E F F F G H H H H H G F F F E _ ",
"} I J J J K J J J J J K J J J I } ",
"2 L M M M K M M M M M K M M M L 2 ",
"6 N O O O P O O O O O P O O O N 6 ",
"0 Q R R R P R R R R R P R R R Q 0 ",
"e S T T T U V V V V V U T T T S e ",
"h W X X X X X X X X X X X X X W h ",
"k Y Z ` ` ` ` ` ` ` ` ` ` ` Z Y k ",
"o p Y Z Z Z Z Z Z Z Z Z Z Z Y p o ",
"p p p p p p p p p p p p p p p p p "};
