/* XPM */
static char * maximizeI_xpm[] = {
"17 34 81 1",
" 	c None",
".	c #A9B4C2",
"+	c #9DAABA",
"@	c #93A0AE",
"#	c #8792A0",
"$	c #AAB5C3",
"%	c #9EABBB",
"&	c #9FACBB",
"*	c #8893A1",
"=	c #ABB6C4",
"-	c #A0ACBC",
";	c #8994A2",
">	c #ACB7C5",
",	c #5F646C",
"'	c #404349",
")	c #A1ADBC",
"!	c #8A95A2",
"~	c #ADB8C5",
"{	c #484C52",
"]	c #626A71",
"^	c #A1AEBD",
"/	c #8B96A3",
"(	c #AEB9C6",
"_	c #52575D",
":	c #A2AEBD",
"<	c #8C97A4",
"[	c #AFBAC7",
"}	c #52575E",
"|	c #A3AFBE",
"1	c #8D98A5",
"2	c #B0BBC8",
"3	c #53585E",
"4	c #A4B0BF",
"5	c #8E99A5",
"6	c #B1BCC8",
"7	c #A5B0BF",
"8	c #8F9AA6",
"9	c #B2BDC9",
"0	c #636970",
"a	c #A5B1C0",
"b	c #909BA7",
"c	c #B3BECA",
"d	c #A6B2C0",
"e	c #919BA7",
"f	c #B4BECA",
"g	c #A7B2C1",
"h	c #A0AAB7",
"i	c #929CA8",
"j	c #B5BFCB",
"k	c #A8B3C1",
"l	c #7F868E",
"m	c #959BA3",
"n	c #80878E",
"o	c #969CA3",
"p	c #80878F",
"q	c #969CA4",
"r	c #81888F",
"s	c #979DA4",
"t	c #C7CCD0",
"u	c #DBDDE2",
"v	c #828890",
"w	c #979DA5",
"x	c #D6D9DD",
"y	c #C5C9CF",
"z	c #828990",
"A	c #989EA5",
"B	c #D0D4D8",
"C	c #838991",
"D	c #989EA6",
"E	c #848A91",
"F	c #999FA6",
"G	c #D1D4D8",
"H	c #848A92",
"I	c #999FA7",
"J	c #D1D4D9",
"K	c #858B92",
"L	c #9AA0A7",
"M	c #C8CCD0",
"N	c #9BA3AE",
"O	c #868C93",
"P	c #9BA1A8",
".................",
"++@###########@++",
"+@#$$$$$$$$$$$#@+",
"%#$$$$$$$$$$$$$#%",
"&*=============*&",
"-;>>>,''''',>>>;-",
")!~~~{]]]]]{~~~!)",
"^/(((_(((((_(((/^",
":<[[[}[[[[[}[[[<:",
"|122232222232221|",
"45666366666366654",
"78999033333099987",
"abcccccccccccccba",
"defffffffffffffed",
"ghijjjjjjjjjjjihg",
"k.hiiiiiiiiiiih.k",
".................",
".................",
"++blllllllllllb++",
"+blmmmmmmmmmmmlb+",
"%lmmmmmmmmmmmmml%",
"&nooooooooooooon&",
"-pqqqqqqqqqqqqqp-",
")rssstuuuuutsssr)",
"^vwwwxyyyyyxwwwv^",
":zAAABAAAAABAAAz:",
"|CDDDBDDDDDBDDDC|",
"4EFFFGFFFFFGFFFE4",
"7HIIIJIIIIIJIIIH7",
"aKLLLMJJJJJMLLLKa",
"dKLLLLLLLLLLLLLKd",
"gNOPPPPPPPPPPPONg",
"k.NOOOOOOOOOOON.k",
"................."};
