/* XPM */
static char * menuButtonO_xpm[] = {
"17 34 45 1",
" 	c None",
".	c #5C9EE1",
"+	c #418EDC",
"@	c #81B4E7",
"#	c #438FDC",
"$	c #4590DC",
"%	c #82B5E7",
"&	c #4791DD",
"*	c #84B6E7",
"=	c #4992DD",
"-	c #86B7E8",
";	c #4B93DD",
">	c #88B8E8",
",	c #4D95DE",
"'	c #8AB9E8",
")	c #4F96DE",
"!	c #8CBAE9",
"~	c #5197DF",
"{	c #8EBBE9",
"]	c #5398DF",
"^	c #90BCE9",
"/	c #5599DF",
"(	c #92BDEA",
"_	c #579BE0",
":	c #94BEEA",
"<	c #599CE0",
"[	c #96BFEA",
"}	c #5B9DE0",
"|	c #97C0EB",
"1	c #5D9EE1",
"2	c #5F9FE1",
"3	c #5B9CE0",
"4	c #658DB5",
"5	c #668DB5",
"6	c #688EB5",
"7	c #698FB5",
"8	c #6B90B6",
"9	c #6C91B6",
"0	c #6E91B6",
"a	c #6F92B6",
"b	c #7193B7",
"c	c #7294B7",
"d	c #7495B7",
"e	c #7595B7",
"f	c #7696B8",
".................",
"++@@@@@@@@@@@@@++",
"#@@@@@@@@@@@@@@@#",
"$%%%%%%%%%%%%%%%$",
"&***************&",
"=---------------=",
";>>>>>>>>>>>>>>>;",
",''''''''''''''',",
")!!!!!!!!!!!!!!!)",
"~{{{{{{{{{{{{{{{~",
"]^^^^^^^^^^^^^^^]",
"/(((((((((((((((/",
"_:::::::::::::::_",
"<[[[[[[[[[[[[[[[<",
"}|||||||||||||||}",
"11|||||||||||||11",
"23333333333333332",
".................",
"+#4444444444444#+",
"#444444444444444#",
"$555555555555555$",
"&666666666666666&",
"=777777777777777=",
";888888888888888;",
",999999999999999,",
")000000000000000)",
"~aaaaaaaaaaaaaaa~",
"]bbbbbbbbbbbbbbb]",
"/ccccccccccccccc/",
"_ddddddddddddddd_",
"<eeeeeeeeeeeeeee<",
"}fffffffffffffff}",
"12fffffffffffff21",
"22222222222222222"};
