/* XPM */
static char * minimizeI_xpm[] = {
"17 34 73 1",
" 	c None",
".	c #A9B4C2",
"+	c #9DAABA",
"@	c #93A0AE",
"#	c #8792A0",
"$	c #AAB5C3",
"%	c #9EABBB",
"&	c #9FACBB",
"*	c #8893A1",
"=	c #ABB6C4",
"-	c #A0ACBC",
";	c #8994A2",
">	c #ACB7C5",
",	c #A1ADBC",
"'	c #8A95A2",
")	c #ADB8C5",
"!	c #A1AEBD",
"~	c #8B96A3",
"{	c #AEB9C6",
"]	c #A2AEBD",
"^	c #8C97A4",
"/	c #AFBAC7",
"(	c #A3AFBE",
"_	c #8D98A5",
":	c #B0BBC8",
"<	c #A4B0BF",
"[	c #8E99A5",
"}	c #B1BCC8",
"|	c #7C848D",
"1	c #646B72",
"2	c #A5B0BF",
"3	c #8F9AA6",
"4	c #B2BDC9",
"5	c #61676D",
"6	c #41454A",
"7	c #A5B1C0",
"8	c #909BA7",
"9	c #B3BECA",
"0	c #A6B2C0",
"a	c #919BA7",
"b	c #B4BECA",
"c	c #A7B2C1",
"d	c #A0AAB7",
"e	c #929CA8",
"f	c #B5BFCB",
"g	c #A8B3C1",
"h	c #7F868E",
"i	c #959BA3",
"j	c #80878E",
"k	c #969CA3",
"l	c #80878F",
"m	c #969CA4",
"n	c #81888F",
"o	c #979DA4",
"p	c #828890",
"q	c #979DA5",
"r	c #828990",
"s	c #989EA5",
"t	c #838991",
"u	c #989EA6",
"v	c #848A91",
"w	c #999FA6",
"x	c #848A92",
"y	c #999FA7",
"z	c #B8BDC3",
"A	c #C6CAD0",
"B	c #858B92",
"C	c #9AA0A7",
"D	c #C9CDD1",
"E	c #DCDEE3",
"F	c #9BA3AE",
"G	c #868C93",
"H	c #9BA1A8",
".................",
"++@###########@++",
"+@#$$$$$$$$$$$#@+",
"%#$$$$$$$$$$$$$#%",
"&*=============*&",
"-;>>>>>>>>>>>>>;-",
",')))))))))))))',",
"!~{{{{{{{{{{{{{~!",
"]^/////////////^]",
"(_:::::::::::::_(",
"<[}}}|11111|}}}[<",
"23444566666544432",
"78999999999999987",
"0abbbbbbbbbbbbba0",
"cdefffffffffffedc",
"g.deeeeeeeeeeed.g",
".................",
".................",
"++8hhhhhhhhhhh8++",
"+8hiiiiiiiiiiih8+",
"%hiiiiiiiiiiiiih%",
"&jkkkkkkkkkkkkkj&",
"-lmmmmmmmmmmmmml-",
",nooooooooooooon,",
"!pqqqqqqqqqqqqqp!",
"]rsssssssssssssr]",
"(tuuuuuuuuuuuuut(",
"<vwwwwwwwwwwwwwv<",
"2xyyyzAAAAAzyyyx2",
"7BCCCDEEEEEDCCCB7",
"0BCCCCCCCCCCCCCB0",
"cFGHHHHHHHHHHHGFc",
"g.FGGGGGGGGGGGF.g",
"................."};
