/* XPM */
static char * minimizeA_xpm[] = {
"17 34 82 1",
" 	c None",
".	c #5C9EE1",
"+	c #418EDC",
"@	c #438FDC",
"#	c #3D85CE",
"$	c #387ABD",
"%	c #5B9DE0",
"&	c #4590DC",
"*	c #3A7BBD",
"=	c #5D9EE0",
"-	c #4791DD",
";	c #3D7CBD",
">	c #609FE0",
",	c #4992DD",
"'	c #3F7EBE",
")	c #62A1E1",
"!	c #4B93DD",
"~	c #427FBE",
"{	c #65A2E1",
"]	c #4D95DE",
"^	c #4481BF",
"/	c #67A4E2",
"(	c #4F96DE",
"_	c #4782BF",
":	c #6AA5E2",
"<	c #5197DF",
"[	c #4984C0",
"}	c #6CA7E3",
"|	c #5398DF",
"1	c #4C85C0",
"2	c #6FA8E3",
"3	c #4E77A0",
"4	c #3E5F82",
"5	c #5599DF",
"6	c #4E87C1",
"7	c #71AAE4",
"8	c #3D5C7D",
"9	c #283D54",
"0	c #579BE0",
"a	c #5188C1",
"b	c #74ABE4",
"c	c #599CE0",
"d	c #5389C1",
"e	c #76ACE4",
"f	c #5B96D3",
"g	c #548AC2",
"h	c #77ADE5",
"i	c #5D9EE1",
"j	c #5F9FE1",
"k	c #5B9CE0",
"l	c #4684C2",
"m	c #5078A0",
"n	c #658DB5",
"o	c #5178A0",
"p	c #668DB5",
"q	c #5379A0",
"r	c #688EB5",
"s	c #547AA0",
"t	c #698FB5",
"u	c #567BA1",
"v	c #6B90B6",
"w	c #577CA1",
"x	c #6C91B6",
"y	c #597CA1",
"z	c #6E91B6",
"A	c #5A7DA1",
"B	c #6F92B6",
"C	c #5C7EA2",
"D	c #7193B7",
"E	c #5D7FA2",
"F	c #7294B7",
"G	c #9AB4CF",
"H	c #ADC3DA",
"I	c #5F80A2",
"J	c #7495B7",
"K	c #B1C5DC",
"L	c #C8D9EA",
"M	c #6080A2",
"N	c #7595B7",
"O	c #6093C7",
"P	c #6181A3",
"Q	c #7696B8",
".................",
"+@#$$$$$$$$$$$#@+",
"@#$%%%%%%%%%%%$#@",
"&*=============*&",
"-;>>>>>>>>>>>>>;-",
",')))))))))))))',",
"!~{{{{{{{{{{{{{~!",
"]^/////////////^]",
"(_:::::::::::::_(",
"<[}}}}}}}}}}}}}[<",
"|122234444432221|",
"56777899999877765",
"0abbbbbbbbbbbbba0",
"cdeeeeeeeeeeeeedc",
"%fghhhhhhhhhhhgf%",
"ijfgggggggggggfji",
"jkkkkkkkkkkkkkkkj",
".................",
"+@lmmmmmmmmmmml@+",
"@lmnnnnnnnnnnnml@",
"&opppppppppppppo&",
"-qrrrrrrrrrrrrrq-",
",sttttttttttttts,",
"!uvvvvvvvvvvvvvu!",
"]wxxxxxxxxxxxxxw]",
"(yzzzzzzzzzzzzzy(",
"<ABBBBBBBBBBBBBA<",
"|CDDDDDDDDDDDDDC|",
"5EFFFGHHHHHGFFFE5",
"0IJJJKLLLLLKJJJI0",
"cMNNNNNNNNNNNNNMc",
"%OPQQQQQQQQQQQPO%",
"ijOPPPPPPPPPPPOji",
"jjjjjjjjjjjjjjjjj"};
