/* XPM */
static char * minimizeO_xpm[] = {
"17 34 83 1",
" 	c None",
".	c #5C9EE1",
"+	c #418EDC",
"@	c #438FDC",
"#	c #5092D5",
"$	c #6699CC",
"%	c #81B4E7",
"&	c #4590DC",
"*	c #679ACC",
"=	c #82B5E7",
"-	c #4791DD",
";	c #699BCC",
">	c #84B6E7",
",	c #4992DD",
"'	c #6B9CCD",
")	c #86B7E8",
"!	c #4B93DD",
"~	c #6D9DCD",
"{	c #88B8E8",
"]	c #4D95DE",
"^	c #6F9ECD",
"/	c #8AB9E8",
"(	c #4F96DE",
"_	c #719FCE",
":	c #8CBAE9",
"<	c #5197DF",
"[	c #73A0CE",
"}	c #8EBBE9",
"|	c #5398DF",
"1	c #75A1CE",
"2	c #90BCE9",
"3	c #6283A4",
"4	c #4E6885",
"5	c #5599DF",
"6	c #77A2CF",
"7	c #92BDEA",
"8	c #4B6480",
"9	c #2F4255",
"0	c #579BE0",
"a	c #79A3CF",
"b	c #94BEEA",
"c	c #599CE0",
"d	c #7BA4CF",
"e	c #96BFEA",
"f	c #5B9DE0",
"g	c #6CA1D9",
"h	c #7CA5D0",
"i	c #97C0EB",
"j	c #5D9EE1",
"k	c #5F9FE1",
"l	c #5B9CE0",
"m	c #4684C2",
"n	c #5078A0",
"o	c #658DB5",
"p	c #5178A0",
"q	c #668DB5",
"r	c #5379A0",
"s	c #688EB5",
"t	c #547AA0",
"u	c #698FB5",
"v	c #567BA1",
"w	c #6B90B6",
"x	c #577CA1",
"y	c #6C91B6",
"z	c #597CA1",
"A	c #6E91B6",
"B	c #5A7DA1",
"C	c #6F92B6",
"D	c #5C7EA2",
"E	c #7193B7",
"F	c #5D7FA2",
"G	c #7294B7",
"H	c #9AB4CF",
"I	c #ADC3DA",
"J	c #5F80A2",
"K	c #7495B7",
"L	c #B1C5DC",
"M	c #C8D9EA",
"N	c #6080A2",
"O	c #7595B7",
"P	c #6093C7",
"Q	c #6181A3",
"R	c #7696B8",
".................",
"+@#$$$$$$$$$$$#@+",
"@#$%%%%%%%%%%%$#@",
"&*=============*&",
"-;>>>>>>>>>>>>>;-",
",')))))))))))))',",
"!~{{{{{{{{{{{{{~!",
"]^/////////////^]",
"(_:::::::::::::_(",
"<[}}}}}}}}}}}}}[<",
"|122234444432221|",
"56777899999877765",
"0abbbbbbbbbbbbba0",
"cdeeeeeeeeeeeeedc",
"fghiiiiiiiiiiihgf",
"jkghhhhhhhhhhhgkj",
"klllllllllllllllk",
".................",
"+@mnnnnnnnnnnnm@+",
"@mnooooooooooonm@",
"&pqqqqqqqqqqqqqp&",
"-rsssssssssssssr-",
",tuuuuuuuuuuuuut,",
"!vwwwwwwwwwwwwwv!",
"]xyyyyyyyyyyyyyx]",
"(zAAAAAAAAAAAAAz(",
"<BCCCCCCCCCCCCCB<",
"|DEEEEEEEEEEEEED|",
"5FGGGHIIIIIHGGGF5",
"0JKKKLMMMMMLKKKJ0",
"cNOOOOOOOOOOOOONc",
"fPQRRRRRRRRRRRQPf",
"jkPQQQQQQQQQQQPkj",
"kkkkkkkkkkkkkkkkk"};
