/* XPM */
static char * restoreA_xpm[] = {
"17 34 130 2",
"  	c None",
". 	c #5C9EE1",
"+ 	c #418EDC",
"@ 	c #438FDC",
"# 	c #3D85CE",
"$ 	c #387ABD",
"% 	c #5B9DE0",
"& 	c #4590DC",
"* 	c #3A7BBD",
"= 	c #5D9EE0",
"- 	c #4791DD",
"; 	c #3D7CBD",
"> 	c #609FE0",
", 	c #4992DD",
"' 	c #3F7EBE",
") 	c #62A1E1",
"! 	c #4978A8",
"~ 	c #253B53",
"{ 	c #36587C",
"] 	c #4B93DD",
"^ 	c #427FBE",
"/ 	c #65A2E1",
"( 	c #64A0DE",
"_ 	c #40678F",
": 	c #5B93CB",
"< 	c #5E97D1",
"[ 	c #3E658C",
"} 	c #4D95DE",
"| 	c #4481BF",
"1 	c #67A4E2",
"2 	c #29415B",
"3 	c #131F2C",
"4 	c #5689BC",
"5 	c #436A92",
"6 	c #4F96DE",
"7 	c #4782BF",
"8 	c #6AA5E2",
"9 	c #2E4864",
"0 	c #527FAF",
"a 	c #38597B",
"b 	c #5484B4",
"c 	c #446B92",
"d 	c #5197DF",
"e 	c #4984C0",
"f 	c #6CA7E3",
"g 	c #314E6B",
"h 	c #487098",
"i 	c #5685B5",
"j 	c #466C92",
"k 	c #5398DF",
"l 	c #4C85C0",
"m 	c #6FA8E3",
"n 	c #324E6B",
"o 	c #4A7098",
"p 	c #3B5879",
"q 	c #3D5D7E",
"r 	c #5599DF",
"s 	c #4E87C1",
"t 	c #71AAE4",
"u 	c #3D5E80",
"v 	c #334F6C",
"w 	c #2E4862",
"x 	c #6396C9",
"y 	c #579BE0",
"z 	c #5188C1",
"A 	c #74ABE4",
"B 	c #599CE0",
"C 	c #5389C1",
"D 	c #76ACE4",
"E 	c #5B96D3",
"F 	c #548AC2",
"G 	c #77ADE5",
"H 	c #5D9EE1",
"I 	c #5F9FE1",
"J 	c #5B9CE0",
"K 	c #4684C2",
"L 	c #5078A0",
"M 	c #658DB5",
"N 	c #5178A0",
"O 	c #668DB5",
"P 	c #5379A0",
"Q 	c #688EB5",
"R 	c #547AA0",
"S 	c #698FB5",
"T 	c #567BA1",
"U 	c #6B90B6",
"V 	c #90ADCB",
"W 	c #C6D8EA",
"X 	c #ADC3DC",
"Y 	c #577CA1",
"Z 	c #6C91B6",
"` 	c #6E93B7",
" .	c #A1BAD4",
"..	c #7A9DBE",
"+.	c #7799BC",
"@.	c #A2BCD5",
"#.	c #597CA1",
"$.	c #6E91B6",
"%.	c #C2D5E8",
"&.	c #E0ECF9",
"*.	c #86A4C4",
"=.	c #A0B9D3",
"-.	c #5A7DA1",
";.	c #6F92B6",
">.	c #BDD0E4",
",.	c #8FACC9",
"'.	c #AFC5DD",
").	c #8BA8C6",
"!.	c #A0BAD3",
"~.	c #5C7EA2",
"{.	c #7193B7",
"].	c #BACEE2",
"^.	c #9EB7D2",
"/.	c #8DA9C7",
"(.	c #5D7FA2",
"_.	c #7294B7",
":.	c #9FB8D2",
"<.	c #B2C7DE",
"[.	c #AEC5DC",
"}.	c #5F80A2",
"|.	c #7495B7",
"1.	c #AFC5DB",
"2.	c #BBCEE2",
"3.	c #C0D3E6",
"4.	c #84A2C1",
"5.	c #6080A2",
"6.	c #7595B7",
"7.	c #6093C7",
"8.	c #6181A3",
"9.	c #7696B8",
". . . . . . . . . . . . . . . . . ",
"+ @ # $ $ $ $ $ $ $ $ $ $ $ # @ + ",
"@ # $ % % % % % % % % % % % $ # @ ",
"& * = = = = = = = = = = = = = * & ",
"- ; > > > > > > > > > > > > > ; - ",
", ' ) ) ) ) ! ~ ~ ~ ~ { ) ) ) ' , ",
"] ^ / / / ( _ : : : < [ / / / ^ ] ",
"} | 1 1 1 2 3 3 3 3 4 5 1 1 1 | } ",
"6 7 8 8 8 9 0 0 0 a b c 8 8 8 7 6 ",
"d e f f f g f f f h i j f f f e d ",
"k l m m m n m m m o p q m m m l k ",
"r s t t t u v v v w x t t t t s r ",
"y z A A A A A A A A A A A A A z y ",
"B C D D D D D D D D D D D D D C B ",
"% E F G G G G G G G G G G G F E % ",
"H I E F F F F F F F F F F F E I H ",
"I J J J J J J J J J J J J J J J I ",
". . . . . . . . . . . . . . . . . ",
"+ @ K L L L L L L L L L L L K @ + ",
"@ K L M M M M M M M M M M M L K @ ",
"& N O O O O O O O O O O O O O N & ",
"- P Q Q Q Q Q Q Q Q Q Q Q Q Q P - ",
", R S S S S S S S S S S S S S R , ",
"] T U U U U V W W W W X U U U T ] ",
"} Y Z Z Z `  .......+.@.Z Z Z Y } ",
"6 #.$.$.$.%.&.&.&.&.*.=.$.$.$.#.6 ",
"d -.;.;.;.>.,.,.,.'.).!.;.;.;.-.d ",
"k ~.{.{.{.].{.{.{.^./. .{.{.{.~.k ",
"r (._._._.]._._._.:.<.[._._._.(.r ",
"y }.|.|.|.1.2.2.2.3.4.|.|.|.|.}.y ",
"B 5.6.6.6.6.6.6.6.6.6.6.6.6.6.5.B ",
"% 7.8.9.9.9.9.9.9.9.9.9.9.9.8.7.% ",
"H I 7.8.8.8.8.8.8.8.8.8.8.8.7.I H ",
"I I I I I I I I I I I I I I I I I "};
