/* XPM */
static char * restoreI_xpm[] = {
"17 34 117 2",
"  	c None",
". 	c #A9B4C2",
"+ 	c #9DAABA",
"@ 	c #93A0AE",
"# 	c #8792A0",
"$ 	c #AAB5C3",
"% 	c #9EABBB",
"& 	c #9FACBB",
"* 	c #8893A1",
"= 	c #ABB6C4",
"- 	c #A0ACBC",
"; 	c #8994A2",
"> 	c #ACB7C5",
", 	c #808892",
"' 	c #404349",
") 	c #5F646C",
"! 	c #A1ADBC",
"~ 	c #8A95A2",
"{ 	c #ADB8C5",
"] 	c #ABB5C2",
"^ 	c #6E757D",
"/ 	c #9CA6B2",
"( 	c #A1ABB6",
"_ 	c #6C727A",
": 	c #A1AEBD",
"< 	c #8B96A3",
"[ 	c #AEB9C6",
"} 	c #454A4F",
"| 	c #212326",
"1 	c #919BA5",
"2 	c #707780",
"3 	c #A2AEBD",
"4 	c #8C97A4",
"5 	c #AFBAC7",
"6 	c #4D5258",
"7 	c #888F9A",
"8 	c #5E656B",
"9 	c #8C949F",
"0 	c #707781",
"a 	c #A3AFBE",
"b 	c #8D98A5",
"c 	c #B0BBC8",
"d 	c #53585E",
"e 	c #767E86",
"f 	c #8D95A0",
"g 	c #717881",
"h 	c #A4B0BF",
"i 	c #8E99A5",
"j 	c #B1BCC8",
"k 	c #777E86",
"l 	c #5D636A",
"m 	c #62686F",
"n 	c #A5B0BF",
"o 	c #8F9AA6",
"p 	c #B2BDC9",
"q 	c #636970",
"r 	c #4B5156",
"s 	c #9CA7B1",
"t 	c #A5B1C0",
"u 	c #909BA7",
"v 	c #B3BECA",
"w 	c #A6B2C0",
"x 	c #919BA7",
"y 	c #B4BECA",
"z 	c #A7B2C1",
"A 	c #A0AAB7",
"B 	c #929CA8",
"C 	c #B5BFCB",
"D 	c #A8B3C1",
"E 	c #7F868E",
"F 	c #959BA3",
"G 	c #80878E",
"H 	c #969CA3",
"I 	c #80878F",
"J 	c #969CA4",
"K 	c #81888F",
"L 	c #979DA4",
"M 	c #B3B7BD",
"N 	c #DBDDE2",
"O 	c #C7CCD0",
"P 	c #828890",
"Q 	c #979DA5",
"R 	c #999FA7",
"S 	c #BFC3C8",
"T 	c #A2A7AE",
"U 	c #9FA5AC",
"V 	c #C0C4C9",
"W 	c #828990",
"X 	c #989EA5",
"Y 	c #D7DBDF",
"Z 	c #EEF0F3",
"` 	c #A9AFB6",
" .	c #BEC2C8",
"..	c #838991",
"+.	c #989EA6",
"@.	c #D3D7DB",
"#.	c #B0B5BC",
"$.	c #C9CDD2",
"%.	c #AEB2B9",
"&.	c #848A91",
"*.	c #999FA6",
"=.	c #D1D4D8",
"-.	c #BCC0C5",
";.	c #AFB3B9",
">.	c #BFC2C8",
",.	c #848A92",
"'.	c #D1D4D9",
").	c #BCC0C6",
"!.	c #CACED3",
"~.	c #C8CCD0",
"{.	c #858B92",
"].	c #9AA0A7",
"^.	c #D5D8DD",
"/.	c #A6ACB2",
"(.	c #9BA3AE",
"_.	c #868C93",
":.	c #9BA1A8",
". . . . . . . . . . . . . . . . . ",
"+ + @ # # # # # # # # # # # @ + + ",
"+ @ # $ $ $ $ $ $ $ $ $ $ $ # @ + ",
"% # $ $ $ $ $ $ $ $ $ $ $ $ $ # % ",
"& * = = = = = = = = = = = = = * & ",
"- ; > > > > , ' ' ' ' ) > > > ; - ",
"! ~ { { { ] ^ / / / ( _ { { { ~ ! ",
": < [ [ [ } | | | | 1 2 [ [ [ < : ",
"3 4 5 5 5 6 7 7 7 8 9 0 5 5 5 4 3 ",
"a b c c c d c c c e f g c c c b a ",
"h i j j j d j j j k l m j j j i h ",
"n o p p p q d d d r s p p p p o n ",
"t u v v v v v v v v v v v v v u t ",
"w x y y y y y y y y y y y y y x w ",
"z A B C C C C C C C C C C C B A z ",
"D . A B B B B B B B B B B B A . D ",
". . . . . . . . . . . . . . . . . ",
". . . . . . . . . . . . . . . . . ",
"+ + u E E E E E E E E E E E u + + ",
"+ u E F F F F F F F F F F F E u + ",
"% E F F F F F F F F F F F F F E % ",
"& G H H H H H H H H H H H H H G & ",
"- I J J J J J J J J J J J J J I - ",
"! K L L L L M N N N N O L L L K ! ",
": P Q Q Q R S T T T U V Q Q Q P : ",
"3 W X X X Y Z Z Z Z `  .X X X W 3 ",
"a ..+.+.+.@.#.#.#.$.%. .+.+.+...a ",
"h &.*.*.*.=.*.*.*.-.;.>.*.*.*.&.h ",
"n ,.R R R '.R R R ).!.~.R R R ,.n ",
"t {.].].].~.'.'.'.^./.].].].].{.t ",
"w {.].].].].].].].].].].].].].{.w ",
"z (._.:.:.:.:.:.:.:.:.:.:.:._.(.z ",
"D . (._._._._._._._._._._._.(.. D ",
". . . . . . . . . . . . . . . . . "};
