/* XPM */
static char * restoreO_xpm[] = {
"17 34 131 2",
"  	c None",
". 	c #5C9EE1",
"+ 	c #418EDC",
"@ 	c #438FDC",
"# 	c #5092D5",
"$ 	c #6699CC",
"% 	c #81B4E7",
"& 	c #4590DC",
"* 	c #679ACC",
"= 	c #82B5E7",
"- 	c #4791DD",
"; 	c #699BCC",
"> 	c #84B6E7",
", 	c #4992DD",
"' 	c #6B9CCD",
") 	c #86B7E8",
"! 	c #6187AC",
"~ 	c #2C4055",
"{ 	c #46617F",
"] 	c #4B93DD",
"^ 	c #6D9DCD",
"/ 	c #88B8E8",
"( 	c #86B5E4",
"_ 	c #537393",
": 	c #7AA6D1",
"< 	c #7EABD7",
"[ 	c #517090",
"} 	c #4D95DE",
"| 	c #6F9ECD",
"1 	c #8AB9E8",
"2 	c #32475D",
"3 	c #131F2C",
"4 	c #719AC1",
"5 	c #567695",
"6 	c #4F96DE",
"7 	c #719FCE",
"8 	c #8CBAE9",
"9 	c #384F66",
"0 	c #6A8EB4",
"a 	c #47627E",
"b 	c #6E93BA",
"c 	c #587696",
"d 	c #5197DF",
"e 	c #73A0CE",
"f 	c #8EBBE9",
"g 	c #3D556D",
"h 	c #5C7C9C",
"i 	c #6F94BA",
"j 	c #597796",
"k 	c #5398DF",
"l 	c #75A1CE",
"m 	c #90BCE9",
"n 	c #3E556D",
"o 	c #5D7C9C",
"p 	c #48617C",
"q 	c #4C6681",
"r 	c #5599DF",
"s 	c #77A2CF",
"t 	c #92BDEA",
"u 	c #4C6782",
"v 	c #3E556E",
"w 	c #384E64",
"x 	c #7FA6CE",
"y 	c #579BE0",
"z 	c #79A3CF",
"A 	c #94BEEA",
"B 	c #599CE0",
"C 	c #7BA4CF",
"D 	c #96BFEA",
"E 	c #5B9DE0",
"F 	c #6CA1D9",
"G 	c #7CA5D0",
"H 	c #97C0EB",
"I 	c #5D9EE1",
"J 	c #5F9FE1",
"K 	c #5B9CE0",
"L 	c #4684C2",
"M 	c #5078A0",
"N 	c #658DB5",
"O 	c #5178A0",
"P 	c #668DB5",
"Q 	c #5379A0",
"R 	c #688EB5",
"S 	c #547AA0",
"T 	c #698FB5",
"U 	c #567BA1",
"V 	c #6B90B6",
"W 	c #90ADCB",
"X 	c #C6D8EA",
"Y 	c #ADC3DC",
"Z 	c #577CA1",
"` 	c #6C91B6",
" .	c #6E93B7",
"..	c #A1BAD4",
"+.	c #7A9DBE",
"@.	c #7799BC",
"#.	c #A2BCD5",
"$.	c #597CA1",
"%.	c #6E91B6",
"&.	c #C2D5E8",
"*.	c #E0ECF9",
"=.	c #86A4C4",
"-.	c #A0B9D3",
";.	c #5A7DA1",
">.	c #6F92B6",
",.	c #BDD0E4",
"'.	c #8FACC9",
").	c #AFC5DD",
"!.	c #8BA8C6",
"~.	c #A0BAD3",
"{.	c #5C7EA2",
"].	c #7193B7",
"^.	c #BACEE2",
"/.	c #9EB7D2",
"(.	c #8DA9C7",
"_.	c #5D7FA2",
":.	c #7294B7",
"<.	c #9FB8D2",
"[.	c #B2C7DE",
"}.	c #AEC5DC",
"|.	c #5F80A2",
"1.	c #7495B7",
"2.	c #AFC5DB",
"3.	c #BBCEE2",
"4.	c #C0D3E6",
"5.	c #84A2C1",
"6.	c #6080A2",
"7.	c #7595B7",
"8.	c #6093C7",
"9.	c #6181A3",
"0.	c #7696B8",
". . . . . . . . . . . . . . . . . ",
"+ @ # $ $ $ $ $ $ $ $ $ $ $ # @ + ",
"@ # $ % % % % % % % % % % % $ # @ ",
"& * = = = = = = = = = = = = = * & ",
"- ; > > > > > > > > > > > > > ; - ",
", ' ) ) ) ) ! ~ ~ ~ ~ { ) ) ) ' , ",
"] ^ / / / ( _ : : : < [ / / / ^ ] ",
"} | 1 1 1 2 3 3 3 3 4 5 1 1 1 | } ",
"6 7 8 8 8 9 0 0 0 a b c 8 8 8 7 6 ",
"d e f f f g f f f h i j f f f e d ",
"k l m m m n m m m o p q m m m l k ",
"r s t t t u v v v w x t t t t s r ",
"y z A A A A A A A A A A A A A z y ",
"B C D D D D D D D D D D D D D C B ",
"E F G H H H H H H H H H H H G F E ",
"I J F G G G G G G G G G G G F J I ",
"J K K K K K K K K K K K K K K K J ",
". . . . . . . . . . . . . . . . . ",
"+ @ L M M M M M M M M M M M L @ + ",
"@ L M N N N N N N N N N N N M L @ ",
"& O P P P P P P P P P P P P P O & ",
"- Q R R R R R R R R R R R R R Q - ",
", S T T T T T T T T T T T T T S , ",
"] U V V V V W X X X X Y V V V U ] ",
"} Z ` ` `  ...+.+.+.@.#.` ` ` Z } ",
"6 $.%.%.%.&.*.*.*.*.=.-.%.%.%.$.6 ",
"d ;.>.>.>.,.'.'.'.).!.~.>.>.>.;.d ",
"k {.].].].^.].].]./.(...].].].{.k ",
"r _.:.:.:.^.:.:.:.<.[.}.:.:.:._.r ",
"y |.1.1.1.2.3.3.3.4.5.1.1.1.1.|.y ",
"B 6.7.7.7.7.7.7.7.7.7.7.7.7.7.6.B ",
"E 8.9.0.0.0.0.0.0.0.0.0.0.0.9.8.E ",
"I J 8.9.9.9.9.9.9.9.9.9.9.9.8.J I ",
"J J J J J J J J J J J J J J J J J "};
