/* XPM */
static char * rolldownO_xpm[] = {
"17 34 102 2",
"  	c None",
". 	c #5C9EE1",
"+ 	c #418EDC",
"@ 	c #438FDC",
"# 	c #5092D5",
"$ 	c #6699CC",
"% 	c #81B4E7",
"& 	c #4590DC",
"* 	c #679ACC",
"= 	c #82B5E7",
"- 	c #4791DD",
"; 	c #699BCC",
"> 	c #84B6E7",
", 	c #4992DD",
"' 	c #6B9CCD",
") 	c #86B7E8",
"! 	c #46617F",
"~ 	c #2C4055",
"{ 	c #4B93DD",
"] 	c #6D9DCD",
"^ 	c #88B8E8",
"/ 	c #344961",
"( 	c #4A6784",
"_ 	c #4D95DE",
": 	c #6F9ECD",
"< 	c #8AB9E8",
"[ 	c #364D64",
"} 	c #5E7FA2",
"| 	c #4F96DE",
"1 	c #719FCE",
"2 	c #8CBAE9",
"3 	c #82ABD5",
"4 	c #5197DF",
"5 	c #73A0CE",
"6 	c #8EBBE9",
"7 	c #425973",
"8 	c #2F4255",
"9 	c #5398DF",
"0 	c #75A1CE",
"a 	c #90BCE9",
"b 	c #84ACD5",
"c 	c #253648",
"d 	c #131F2C",
"e 	c #5599DF",
"f 	c #77A2CF",
"g 	c #92BDEA",
"h 	c #8FB9E6",
"i 	c #384F66",
"j 	c #579BE0",
"k 	c #79A3CF",
"l 	c #94BEEA",
"m 	c #599CE0",
"n 	c #7BA4CF",
"o 	c #96BFEA",
"p 	c #5B9DE0",
"q 	c #6CA1D9",
"r 	c #7CA5D0",
"s 	c #97C0EB",
"t 	c #5D9EE1",
"u 	c #5F9FE1",
"v 	c #5B9CE0",
"w 	c #4684C2",
"x 	c #5078A0",
"y 	c #658DB5",
"z 	c #5178A0",
"A 	c #668DB5",
"B 	c #5379A0",
"C 	c #688EB5",
"D 	c #547AA0",
"E 	c #698FB5",
"F 	c #567BA1",
"G 	c #6B90B6",
"H 	c #ADC3DC",
"I 	c #C6D8EA",
"J 	c #577CA1",
"K 	c #6C91B6",
"L 	c #C0D2E7",
"M 	c #AAC1DA",
"N 	c #597CA1",
"O 	c #6E91B6",
"P 	c #BED1E5",
"Q 	c #99B3CF",
"R 	c #5A7DA1",
"S 	c #6F92B6",
"T 	c #83A2C2",
"U 	c #5C7EA2",
"V 	c #7193B7",
"W 	c #B8CCE0",
"X 	c #C8D9EA",
"Y 	c #5D7FA2",
"Z 	c #7294B7",
"` 	c #7E9DBE",
" .	c #D0DFEF",
"..	c #E0ECF9",
"+.	c #5F80A2",
"@.	c #7495B7",
"#.	c #7D9CBE",
"$.	c #6080A2",
"%.	c #7595B7",
"&.	c #6093C7",
"*.	c #6181A3",
"=.	c #7696B8",
". . . . . . . . . . . . . . . . . ",
"+ @ # $ $ $ $ $ $ $ $ $ $ $ # @ + ",
"@ # $ % % % % % % % % % % % $ # @ ",
"& * = = = = = = = = = = = = = * & ",
"- ; > > > > > > > > > > > > > ; - ",
", ' ) ) ) ! ~ ~ ~ ~ ~ ! ) ) ) ' , ",
"{ ] ^ ^ ^ / ( ( ( ( ( / ^ ^ ^ ] { ",
"_ : < < < [ } } } } } [ < < < : _ ",
"| 1 2 2 2 3 3 3 3 3 3 3 2 2 2 1 | ",
"4 5 6 6 6 6 7 8 8 8 7 6 6 6 6 5 4 ",
"9 0 a a a a b c d c b a a a a 0 9 ",
"e f g g g h 6 3 i 3 6 h g g g f e ",
"j k l l l l l l l l l l l l l k j ",
"m n o o o o o o o o o o o o o n m ",
"p q r s s s s s s s s s s s r q p ",
"t u q r r r r r r r r r r r q u t ",
"u v v v v v v v v v v v v v v v u ",
". . . . . . . . . . . . . . . . . ",
"+ @ w x x x x x x x x x x x w @ + ",
"@ w x y y y y y y y y y y y x w @ ",
"& z A A A A A A A A A A A A A z & ",
"- B C C C C C C C C C C C C C B - ",
", D E E E E E E E E E E E E E D , ",
"{ F G G G H I I I I I H G G G F { ",
"_ J K K K L M M M M M L K K K J _ ",
"| N O O O P Q Q Q Q Q P O O O N | ",
"4 R S S S T T T T T T T S S S R 4 ",
"9 U V V V V W X X X W V V V V U 9 ",
"e Y Z Z Z Z `  ... .` Z Z Z Z Y e ",
"j +.@.@.@.@.V #.P #.V @.@.@.@.+.j ",
"m $.%.%.%.%.%.%.%.%.%.%.%.%.%.$.m ",
"p &.*.=.=.=.=.=.=.=.=.=.=.=.*.&.p ",
"t u &.*.*.*.*.*.*.*.*.*.*.*.&.u t ",
"u u u u u u u u u u u u u u u u u "};
