/* XPM */
static char * rolldownA_xpm[] = {
"17 34 101 2",
"  	c None",
". 	c #5C9EE1",
"+ 	c #418EDC",
"@ 	c #438FDC",
"# 	c #3D85CE",
"$ 	c #387ABD",
"% 	c #5B9DE0",
"& 	c #4590DC",
"* 	c #3A7BBD",
"= 	c #5D9EE0",
"- 	c #4791DD",
"; 	c #3D7CBD",
"> 	c #609FE0",
", 	c #4992DD",
"' 	c #3F7EBE",
") 	c #62A1E1",
"! 	c #36587C",
"~ 	c #253B53",
"{ 	c #4B93DD",
"] 	c #427FBE",
"^ 	c #65A2E1",
"/ 	c #2A435F",
"( 	c #3A5C81",
"_ 	c #4D95DE",
": 	c #4481BF",
"< 	c #67A4E2",
"[ 	c #2C4762",
"} 	c #48729E",
"| 	c #4F96DE",
"1 	c #4782BF",
"2 	c #6AA5E2",
"3 	c #5C8FC3",
"4 	c #5197DF",
"5 	c #4984C0",
"6 	c #6CA7E3",
"7 	c #365271",
"8 	c #283D54",
"9 	c #5398DF",
"0 	c #4C85C0",
"a 	c #6FA8E3",
"b 	c #669AD0",
"c 	c #213347",
"d 	c #131F2C",
"e 	c #5599DF",
"f 	c #4E87C1",
"g 	c #71AAE4",
"h 	c #6499D0",
"i 	c #2E4964",
"j 	c #579BE0",
"k 	c #5188C1",
"l 	c #74ABE4",
"m 	c #599CE0",
"n 	c #5389C1",
"o 	c #76ACE4",
"p 	c #5B96D3",
"q 	c #548AC2",
"r 	c #77ADE5",
"s 	c #5D9EE1",
"t 	c #5F9FE1",
"u 	c #5B9CE0",
"v 	c #4684C2",
"w 	c #5078A0",
"x 	c #658DB5",
"y 	c #5178A0",
"z 	c #668DB5",
"A 	c #5379A0",
"B 	c #688EB5",
"C 	c #547AA0",
"D 	c #698FB5",
"E 	c #567BA1",
"F 	c #6B90B6",
"G 	c #ADC3DC",
"H 	c #C6D8EA",
"I 	c #577CA1",
"J 	c #6C91B6",
"K 	c #C0D2E7",
"L 	c #AAC1DA",
"M 	c #597CA1",
"N 	c #6E91B6",
"O 	c #BED1E5",
"P 	c #99B3CF",
"Q 	c #5A7DA1",
"R 	c #6F92B6",
"S 	c #83A2C2",
"T 	c #5C7EA2",
"U 	c #7193B7",
"V 	c #B8CCE0",
"W 	c #C8D9EA",
"X 	c #5D7FA2",
"Y 	c #7294B7",
"Z 	c #7E9DBE",
"` 	c #D0DFEF",
" .	c #E0ECF9",
"..	c #5F80A2",
"+.	c #7495B7",
"@.	c #7D9CBE",
"#.	c #6080A2",
"$.	c #7595B7",
"%.	c #6093C7",
"&.	c #6181A3",
"*.	c #7696B8",
". . . . . . . . . . . . . . . . . ",
"+ @ # $ $ $ $ $ $ $ $ $ $ $ # @ + ",
"@ # $ % % % % % % % % % % % $ # @ ",
"& * = = = = = = = = = = = = = * & ",
"- ; > > > > > > > > > > > > > ; - ",
", ' ) ) ) ! ~ ~ ~ ~ ~ ! ) ) ) ' , ",
"{ ] ^ ^ ^ / ( ( ( ( ( / ^ ^ ^ ] { ",
"_ : < < < [ } } } } } [ < < < : _ ",
"| 1 2 2 2 3 3 3 3 3 3 3 2 2 2 1 | ",
"4 5 6 6 6 6 7 8 8 8 7 6 6 6 6 5 4 ",
"9 0 a a a a b c d c b a a a a 0 9 ",
"e f g g g g 6 h i h 6 g g g g f e ",
"j k l l l l l l l l l l l l l k j ",
"m n o o o o o o o o o o o o o n m ",
"% p q r r r r r r r r r r r q p % ",
"s t p q q q q q q q q q q q p t s ",
"t u u u u u u u u u u u u u u u t ",
". . . . . . . . . . . . . . . . . ",
"+ @ v w w w w w w w w w w w v @ + ",
"@ v w x x x x x x x x x x x w v @ ",
"& y z z z z z z z z z z z z z y & ",
"- A B B B B B B B B B B B B B A - ",
", C D D D D D D D D D D D D D C , ",
"{ E F F F G H H H H H G F F F E { ",
"_ I J J J K L L L L L K J J J I _ ",
"| M N N N O P P P P P O N N N M | ",
"4 Q R R R S S S S S S S R R R Q 4 ",
"9 T U U U U V W W W V U U U U T 9 ",
"e X Y Y Y Y Z `  .` Z Y Y Y Y X e ",
"j ..+.+.+.+.U @.O @.U +.+.+.+...j ",
"m #.$.$.$.$.$.$.$.$.$.$.$.$.$.#.m ",
"% %.&.*.*.*.*.*.*.*.*.*.*.*.&.%.% ",
"s t %.&.&.&.&.&.&.&.&.&.&.&.%.t s ",
"t t t t t t t t t t t t t t t t t "};
