/* XPM */
static char * rollupA_xpm[] = {
"17 34 106 2",
"  	c None",
". 	c #5C9EE1",
"+ 	c #418EDC",
"@ 	c #438FDC",
"# 	c #5092D5",
"$ 	c #6699CC",
"% 	c #81B4E7",
"& 	c #4590DC",
"* 	c #679ACC",
"= 	c #82B5E7",
"- 	c #4791DD",
"; 	c #699BCC",
"> 	c #84B6E7",
", 	c #4992DD",
"' 	c #6B9CCD",
") 	c #86B7E8",
"! 	c #46617F",
"~ 	c #2C4055",
"{ 	c #4B93DD",
"] 	c #6D9DCD",
"^ 	c #88B8E8",
"/ 	c #344961",
"( 	c #4A6784",
"_ 	c #4D95DE",
": 	c #6F9ECD",
"< 	c #8AB9E8",
"[ 	c #364D64",
"} 	c #5E7FA2",
"| 	c #4F96DE",
"1 	c #719FCE",
"2 	c #8CBAE9",
"3 	c #78A0C9",
"4 	c #6A8EB4",
"5 	c #5197DF",
"6 	c #73A0CE",
"7 	c #8EBBE9",
"8 	c #82ABD5",
"9 	c #384F66",
"0 	c #5398DF",
"a 	c #75A1CE",
"b 	c #90BCE9",
"c 	c #84ACD5",
"d 	c #253648",
"e 	c #131F2C",
"f 	c #5599DF",
"g 	c #77A2CF",
"h 	c #92BDEA",
"i 	c #8FB9E6",
"j 	c #425973",
"k 	c #2F4255",
"l 	c #579BE0",
"m 	c #79A3CF",
"n 	c #94BEEA",
"o 	c #599CE0",
"p 	c #7BA4CF",
"q 	c #96BFEA",
"r 	c #5B9DE0",
"s 	c #6CA1D9",
"t 	c #7CA5D0",
"u 	c #97C0EB",
"v 	c #5D9EE1",
"w 	c #5F9FE1",
"x 	c #5B9CE0",
"y 	c #4684C2",
"z 	c #5078A0",
"A 	c #658DB5",
"B 	c #5178A0",
"C 	c #668DB5",
"D 	c #5379A0",
"E 	c #688EB5",
"F 	c #547AA0",
"G 	c #698FB5",
"H 	c #567BA1",
"I 	c #6B90B6",
"J 	c #ADC3DC",
"K 	c #C6D8EA",
"L 	c #577CA1",
"M 	c #6C91B6",
"N 	c #C0D2E7",
"O 	c #AAC1DA",
"P 	c #597CA1",
"Q 	c #6E91B6",
"R 	c #BED1E5",
"S 	c #99B3CF",
"T 	c #5A7DA1",
"U 	c #6F92B6",
"V 	c #83A2C2",
"W 	c #8FACC9",
"X 	c #5C7EA2",
"Y 	c #7193B7",
"Z 	c #7D9CBE",
"` 	c #5D7FA2",
" .	c #7294B7",
"..	c #7E9DBE",
"+.	c #D0DFEF",
"@.	c #E0ECF9",
"#.	c #5F80A2",
"$.	c #7495B7",
"%.	c #7798B9",
"&.	c #B8CCE0",
"*.	c #C8D9EA",
"=.	c #6080A2",
"-.	c #7595B7",
";.	c #6093C7",
">.	c #6181A3",
",.	c #7696B8",
". . . . . . . . . . . . . . . . . ",
"+ @ # $ $ $ $ $ $ $ $ $ $ $ # @ + ",
"@ # $ % % % % % % % % % % % $ # @ ",
"& * = = = = = = = = = = = = = * & ",
"- ; > > > > > > > > > > > > > ; - ",
", ' ) ) ) ! ~ ~ ~ ~ ~ ! ) ) ) ' , ",
"{ ] ^ ^ ^ / ( ( ( ( ( / ^ ^ ^ ] { ",
"_ : < < < [ } } } } } [ < < < : _ ",
"| 1 2 2 2 3 4 4 4 4 4 3 2 2 2 1 | ",
"5 6 7 7 7 7 7 8 9 8 7 7 7 7 7 6 5 ",
"0 a b b b b c d e d c b b b b a 0 ",
"f g h h h i j k k k j i h h h g f ",
"l m n n n n n n n n n n n n n m l ",
"o p q q q q q q q q q q q q q p o ",
"r s t u u u u u u u u u u u t s r ",
"v w s t t t t t t t t t t t s w v ",
"w x x x x x x x x x x x x x x x w ",
". . . . . . . . . . . . . . . . . ",
"+ @ y z z z z z z z z z z z y @ + ",
"@ y z A A A A A A A A A A A z y @ ",
"& B C C C C C C C C C C C C C B & ",
"- D E E E E E E E E E E E E E D - ",
", F G G G G G G G G G G G G G F , ",
"{ H I I I J K K K K K J I I I H { ",
"_ L M M M N O O O O O N M M M L _ ",
"| P Q Q Q R S S S S S R Q Q Q P | ",
"5 T U U U V W W W W W V U U U T 5 ",
"0 X Y Y Y Y Y Z R Z Y Y Y Y Y X 0 ",
"f `  . . . ...+.@.+... . . . .` f ",
"l #.$.$.$.%.&.*.*.*.&.%.$.$.$.#.l ",
"o =.-.-.-.-.-.-.-.-.-.-.-.-.-.=.o ",
"r ;.>.,.,.,.,.,.,.,.,.,.,.,.>.;.r ",
"v w ;.>.>.>.>.>.>.>.>.>.>.>.;.w v ",
"w w w w w w w w w w w w w w w w w "};
