/* XPM */
static char * rolldownI_xpm[] = {
"17 34 95 2",
"  	c None",
". 	c #A9B4C2",
"+ 	c #9DAABA",
"@ 	c #93A0AE",
"# 	c #8792A0",
"$ 	c #AAB5C3",
"% 	c #9EABBB",
"& 	c #9FACBB",
"* 	c #8893A1",
"= 	c #ABB6C4",
"- 	c #A0ACBC",
"; 	c #8994A2",
"> 	c #ACB7C5",
", 	c #5F646C",
"' 	c #404349",
") 	c #A1ADBC",
"! 	c #8A95A2",
"~ 	c #ADB8C5",
"{ 	c #484C52",
"] 	c #626A71",
"^ 	c #A1AEBD",
"/ 	c #8B96A3",
"( 	c #AEB9C6",
"_ 	c #4B5056",
": 	c #79818A",
"< 	c #A2AEBD",
"[ 	c #8C97A4",
"} 	c #AFBAC7",
"| 	c #97A1AC",
"1 	c #888F9A",
"2 	c #A3AFBE",
"3 	c #8D98A5",
"4 	c #B0BBC8",
"5 	c #575C63",
"6 	c #41454A",
"7 	c #A4B0BF",
"8 	c #8E99A5",
"9 	c #B1BCC8",
"0 	c #A2ACB8",
"a 	c #363A3E",
"b 	c #212326",
"c 	c #A5B0BF",
"d 	c #8F9AA6",
"e 	c #B2BDC9",
"f 	c #A1ABB8",
"g 	c #4D5157",
"h 	c #A5B1C0",
"i 	c #909BA7",
"j 	c #B3BECA",
"k 	c #A6B2C0",
"l 	c #919BA7",
"m 	c #B4BECA",
"n 	c #A7B2C1",
"o 	c #A0AAB7",
"p 	c #929CA8",
"q 	c #B5BFCB",
"r 	c #A8B3C1",
"s 	c #7F868E",
"t 	c #959BA3",
"u 	c #80878E",
"v 	c #969CA3",
"w 	c #80878F",
"x 	c #969CA4",
"y 	c #81888F",
"z 	c #979DA4",
"A 	c #C7CCD0",
"B 	c #DBDDE2",
"C 	c #828890",
"D 	c #979DA5",
"E 	c #D6D9DD",
"F 	c #C5C9CF",
"G 	c #828990",
"H 	c #989EA5",
"I 	c #D4D7DC",
"J 	c #B9BDC2",
"K 	c #838991",
"L 	c #989EA6",
"M 	c #A7ACB3",
"N 	c #B0B5BC",
"O 	c #848A91",
"P 	c #999FA6",
"Q 	c #CED3D6",
"R 	c #DCDEE3",
"S 	c #848A92",
"T 	c #999FA7",
"U 	c #A2A7AF",
"V 	c #E2E4E8",
"W 	c #EEF0F3",
"X 	c #858B92",
"Y 	c #9AA0A7",
"Z 	c #A2A7AE",
"` 	c #D4D8DC",
" .	c #9BA3AE",
"..	c #868C93",
"+.	c #9BA1A8",
". . . . . . . . . . . . . . . . . ",
"+ + @ # # # # # # # # # # # @ + + ",
"+ @ # $ $ $ $ $ $ $ $ $ $ $ # @ + ",
"% # $ $ $ $ $ $ $ $ $ $ $ $ $ # % ",
"& * = = = = = = = = = = = = = * & ",
"- ; > > > , ' ' ' ' ' , > > > ; - ",
") ! ~ ~ ~ { ] ] ] ] ] { ~ ~ ~ ! ) ",
"^ / ( ( ( _ : : : : : _ ( ( ( / ^ ",
"< [ } } } | 1 1 1 1 1 | } } } [ < ",
"2 3 4 4 4 4 5 6 6 6 5 4 4 4 4 3 2 ",
"7 8 9 9 9 9 0 a b a 0 9 9 9 9 8 7 ",
"c d e e e e 4 f g f 4 e e e e d c ",
"h i j j j j j j j j j j j j j i h ",
"k l m m m m m m m m m m m m m l k ",
"n o p q q q q q q q q q q q p o n ",
"r . o p p p p p p p p p p p o . r ",
". . . . . . . . . . . . . . . . . ",
". . . . . . . . . . . . . . . . . ",
"+ + i s s s s s s s s s s s i + + ",
"+ i s t t t t t t t t t t t s i + ",
"% s t t t t t t t t t t t t t s % ",
"& u v v v v v v v v v v v v v u & ",
"- w x x x x x x x x x x x x x w - ",
") y z z z A B B B B B A z z z y ) ",
"^ C D D D E F F F F F E D D D C ^ ",
"< G H H H I J J J J J I H H H G < ",
"2 K L L L M N N N N N M L L L K 2 ",
"7 O P P P P Q R R R Q P P P P O 7 ",
"c S T T T T U V W V U T T T T S c ",
"h X Y Y Y Y P Z ` Z P Y Y Y Y X h ",
"k X Y Y Y Y Y Y Y Y Y Y Y Y Y X k ",
"n  ...+.+.+.+.+.+.+.+.+.+.+... .n ",
"r .  ....................... .. r ",
". . . . . . . . . . . . . . . . . "};
