/* XPM */
static char * rollupI_xpm[] = {
"17 34 97 2",
"  	c None",
". 	c #A9B4C2",
"+ 	c #9DAABA",
"@ 	c #93A0AE",
"# 	c #8792A0",
"$ 	c #AAB5C3",
"% 	c #9EABBB",
"& 	c #9FACBB",
"* 	c #8893A1",
"= 	c #ABB6C4",
"- 	c #A0ACBC",
"; 	c #8994A2",
"> 	c #ACB7C5",
", 	c #5F646C",
"' 	c #404349",
") 	c #A1ADBC",
"! 	c #8A95A2",
"~ 	c #ADB8C5",
"{ 	c #484C52",
"] 	c #626A71",
"^ 	c #A1AEBD",
"/ 	c #8B96A3",
"( 	c #AEB9C6",
"_ 	c #4B5056",
": 	c #79818A",
"< 	c #A2AEBD",
"[ 	c #8C97A4",
"} 	c #AFBAC7",
"| 	c #97A1AC",
"1 	c #888F9A",
"2 	c #A3AFBE",
"3 	c #8D98A5",
"4 	c #B0BBC8",
"5 	c #A1ABB8",
"6 	c #4D5157",
"7 	c #A4B0BF",
"8 	c #8E99A5",
"9 	c #B1BCC8",
"0 	c #A2ACB8",
"a 	c #363A3E",
"b 	c #212326",
"c 	c #A5B0BF",
"d 	c #8F9AA6",
"e 	c #B2BDC9",
"f 	c #AEB9C4",
"g 	c #575C63",
"h 	c #41454A",
"i 	c #A5B1C0",
"j 	c #909BA7",
"k 	c #B3BECA",
"l 	c #A6B2C0",
"m 	c #919BA7",
"n 	c #B4BECA",
"o 	c #A7B2C1",
"p 	c #A0AAB7",
"q 	c #929CA8",
"r 	c #B5BFCB",
"s 	c #A8B3C1",
"t 	c #7F868E",
"u 	c #959BA3",
"v 	c #80878E",
"w 	c #969CA3",
"x 	c #80878F",
"y 	c #969CA4",
"z 	c #81888F",
"A 	c #979DA4",
"B 	c #C7CCD0",
"C 	c #DBDDE2",
"D 	c #828890",
"E 	c #979DA5",
"F 	c #D6D9DD",
"G 	c #C5C9CF",
"H 	c #828990",
"I 	c #989EA5",
"J 	c #D4D7DC",
"K 	c #B9BDC2",
"L 	c #838991",
"M 	c #989EA6",
"N 	c #A7ACB3",
"O 	c #B0B5BC",
"P 	c #848A91",
"Q 	c #999FA6",
"R 	c #A2A7AE",
"S 	c #D4D8DC",
"T 	c #848A92",
"U 	c #999FA7",
"V 	c #A2A7AF",
"W 	c #E2E4E8",
"X 	c #EEF0F3",
"Y 	c #858B92",
"Z 	c #9AA0A7",
"` 	c #9DA3A9",
" .	c #CED3D6",
"..	c #DCDEE3",
"+.	c #9BA3AE",
"@.	c #868C93",
"#.	c #9BA1A8",
". . . . . . . . . . . . . . . . . ",
"+ + @ # # # # # # # # # # # @ + + ",
"+ @ # $ $ $ $ $ $ $ $ $ $ $ # @ + ",
"% # $ $ $ $ $ $ $ $ $ $ $ $ $ # % ",
"& * = = = = = = = = = = = = = * & ",
"- ; > > > , ' ' ' ' ' , > > > ; - ",
") ! ~ ~ ~ { ] ] ] ] ] { ~ ~ ~ ! ) ",
"^ / ( ( ( _ : : : : : _ ( ( ( / ^ ",
"< [ } } } | 1 1 1 1 1 | } } } [ < ",
"2 3 4 4 4 4 4 5 6 5 4 4 4 4 4 3 2 ",
"7 8 9 9 9 9 0 a b a 0 9 9 9 9 8 7 ",
"c d e e e f g h h h g f e e e d c ",
"i j k k k k k k k k k k k k k j i ",
"l m n n n n n n n n n n n n n m l ",
"o p q r r r r r r r r r r r q p o ",
"s . p q q q q q q q q q q q p . s ",
". . . . . . . . . . . . . . . . . ",
". . . . . . . . . . . . . . . . . ",
"+ + j t t t t t t t t t t t j + + ",
"+ j t u u u u u u u u u u u t j + ",
"% t u u u u u u u u u u u u u t % ",
"& v w w w w w w w w w w w w w v & ",
"- x y y y y y y y y y y y y y x - ",
") z A A A B C C C C C B A A A z ) ",
"^ D E E E F G G G G G F E E E D ^ ",
"< H I I I J K K K K K J I I I H < ",
"2 L M M M N O O O O O N M M M L 2 ",
"7 P Q Q Q Q Q R S R Q Q Q Q Q P 7 ",
"c T U U U U V W X W V U U U U T c ",
"i Y Z Z Z `  ....... .` Z Z Z Y i ",
"l Y Z Z Z Z Z Z Z Z Z Z Z Z Z Y l ",
"o +.@.#.#.#.#.#.#.#.#.#.#.#.@.+.o ",
"s . +.@.@.@.@.@.@.@.@.@.@.@.+.. s ",
". . . . . . . . . . . . . . . . . "};
