/* XPM */
static char * titleIM_xpm[] = {
"4 20 17 1",
" 	c None",
".	c #CDC6CD",
"+	c #C5C2C5",
"@	c #C5BEC5",
"#	c #BDBABD",
"$	c #BDB6BD",
"%	c #B4B2B4",
"&	c #BDB2BD",
"*	c #B4AEB4",
"=	c #ACAAAC",
"-	c #B4AAB4",
";	c #ACA5AC",
">	c #A4A1A4",
",	c #ACA1AC",
"'	c #A49DA4",
")	c #948D94",
"!	c #8B898B",
".+.+",
"+.+.",
"+@+@",
"@+@+",
"@#@#",
"#@#@",
"#$#$",
"$$$$",
"$%$%",
"%&%&",
"%*%*",
"****",
"*=*=",
"=-=-",
";;;;",
";;;;",
";>;>",
">,>,",
"''''",
")!)!"};
