/* XPM */
static char * titleAJ_xpm[] = {
"4 17 18 1",
" 	c None",
".	c #5C9EE1",
"+	c #418EDC",
"@	c #438FDC",
"#	c #4590DC",
"$	c #4791DD",
"%	c #4992DD",
"&	c #4B93DD",
"*	c #4D95DE",
"=	c #4F96DE",
"-	c #5197DF",
";	c #5398DF",
">	c #5599DF",
",	c #579BE0",
"'	c #599CE0",
")	c #5B9DE0",
"!	c #5D9EE1",
"~	c #5F9FE1",
"....",
"++++",
"@@@@",
"####",
"$$$$",
"%%%%",
"&&&&",
"****",
"====",
"----",
";;;;",
">>>>",
",,,,",
"''''",
"))))",
"!!!!",
"~~~~"};
